<svg width="20" height="20" viewBox="0 0 20 20" fill="none" xmlns="http://www.w3.org/2000/svg">
<path d="M15.0192 18.3332C14.293 18.3332 13.2729 18.0705 11.7453 17.2171C9.88777 16.1754 8.45099 15.2137 6.6035 13.3711C4.82223 11.5909 3.9554 10.4384 2.74222 8.23076C1.37167 5.73817 1.6053 4.43161 1.86647 3.87319C2.17748 3.20578 2.63656 2.80659 3.22995 2.41038C3.56699 2.18956 3.92366 2.00026 4.29544 1.8449C4.33264 1.8289 4.36724 1.81365 4.39812 1.79988C4.58227 1.71692 4.86129 1.59155 5.21472 1.72548C5.45059 1.81402 5.66115 1.9952 5.99077 2.32072C6.66675 2.9874 7.59049 4.47216 7.93127 5.20134C8.16007 5.69278 8.31148 6.01719 8.31186 6.38104C8.31186 6.80701 8.09757 7.13551 7.83752 7.49005C7.78878 7.55665 7.74042 7.62026 7.69354 7.68202C7.41043 8.05405 7.3483 8.16156 7.38923 8.35353C7.47219 8.73932 8.09087 9.88778 9.10762 10.9023C10.1244 11.9168 11.2397 12.4964 11.627 12.579C11.8272 12.6218 11.9369 12.5571 12.3208 12.2639C12.3759 12.2219 12.4324 12.1784 12.4916 12.1348C12.8882 11.8398 13.2014 11.6311 13.6174 11.6311H13.6196C13.9816 11.6311 14.2915 11.7881 14.8049 12.047C15.4745 12.3848 17.0039 13.2967 17.6747 13.9734C18.001 14.3023 18.1829 14.5121 18.2718 14.7476C18.4057 15.1021 18.2796 15.38 18.1974 15.566C18.1836 15.5969 18.1684 15.6308 18.1524 15.6684C17.9958 16.0395 17.8054 16.3954 17.5835 16.7316C17.1881 17.3231 16.7874 17.7811 16.1185 18.0925C15.775 18.255 15.3991 18.3373 15.0192 18.3332Z" fill="#F27449"/>
</svg>
