<svg width="20" height="20" viewBox="0 0 20 20" fill="none" xmlns="http://www.w3.org/2000/svg">
<path d="M17.2579 6.76665V14.6083C17.2579 16.6583 15.5829 18.3333 13.5329 18.3333H6.46621C4.41621 18.3333 2.74121 16.6583 2.74121 14.6083V6.76665C2.74121 5.34165 3.54121 4.09998 4.71621 3.47498C5.12454 3.25832 5.63288 3.54998 5.63288 4.01665C5.63288 5.34165 6.71621 6.42498 8.04121 6.42498H11.9579C13.2829 6.42498 14.3662 5.34165 14.3662 4.01665C14.3662 3.54998 14.8662 3.25832 15.2829 3.47498C16.4579 4.09998 17.2579 5.34165 17.2579 6.76665Z" fill="#F27449"/>
<path d="M11.9565 1.66666H8.03984C7.17318 1.66666 6.46484 2.36666 6.46484 3.23333V4.01666C6.46484 4.88333 7.16484 5.58333 8.03151 5.58333H11.9565C12.8232 5.58333 13.5232 4.88333 13.5232 4.01666V3.23333C13.5315 2.36666 12.8232 1.66666 11.9565 1.66666Z" fill="#F27449"/>
<path d="M5.8854 12.9648C5.7606 12.9648 5.65808 12.9248 5.57785 12.8449C5.49762 12.7603 5.45751 12.6569 5.45751 12.5348V8.44626H6.32667V12.5348C6.32667 12.6569 6.28432 12.7603 6.19963 12.8449C6.1194 12.9248 6.01466 12.9648 5.8854 12.9648ZM4.40783 8.84102C4.29195 8.84102 4.19389 8.80342 4.11366 8.72823C4.03789 8.65304 4 8.55435 4 8.43217C4 8.30998 4.03789 8.21364 4.11366 8.14315C4.19389 8.06796 4.29195 8.03037 4.40783 8.03037H7.37634C7.49223 8.03037 7.58806 8.06796 7.66383 8.14315C7.74406 8.21834 7.78417 8.31703 7.78417 8.43922C7.78417 8.5614 7.74406 8.66009 7.66383 8.73528C7.58806 8.80577 7.49223 8.84102 7.37634 8.84102H4.40783Z" fill="white"/>
<path d="M9.8713 9.13708L8.42716 12.718C8.39596 12.8073 8.34693 12.8778 8.28007 12.9295C8.21767 12.9765 8.14859 13 8.07281 13C7.95247 13 7.86332 12.9648 7.80538 12.8943C7.74744 12.8238 7.71846 12.7368 7.71846 12.6334C7.71846 12.5912 7.72515 12.5465 7.73852 12.4995L9.40329 8.28413C9.43895 8.19015 9.49244 8.1173 9.56375 8.06561C9.63952 8.01392 9.71975 7.99277 9.80444 8.00217C9.88467 8.00217 9.95821 8.02802 10.0251 8.07971C10.0964 8.1267 10.1476 8.19485 10.1788 8.28413L11.8236 12.4149C11.8458 12.476 11.857 12.5324 11.857 12.5841C11.857 12.711 11.8169 12.812 11.7366 12.8872C11.6609 12.9624 11.5762 13 11.4826 13C11.4024 13 11.3288 12.9742 11.2619 12.9225C11.1995 12.8708 11.1505 12.8003 11.1149 12.711L9.67741 9.17937L9.8713 9.13708ZM8.63442 11.858L9.00214 11.0474H10.8073L10.9343 11.858H8.63442Z" fill="white"/>
<path d="M15.6256 8.02332C15.7281 8.02332 15.815 8.06561 15.8863 8.1502C15.9621 8.23479 16 8.32408 16 8.41807C16 8.50736 15.971 8.59195 15.9131 8.67184L14.5692 10.5399L14.1146 9.88429L15.298 8.22774C15.3916 8.09146 15.5008 8.02332 15.6256 8.02332ZM12.6437 8.00922C12.773 8.00922 12.8822 8.07031 12.9713 8.1925L15.9131 12.3162C15.9666 12.3914 15.9933 12.4784 15.9933 12.5771C15.9933 12.7086 15.9487 12.812 15.8596 12.8872C15.7705 12.9624 15.6813 13 15.5922 13C15.4629 13 15.3537 12.9389 15.2646 12.8167L12.3228 8.69298C12.2649 8.61779 12.2359 8.5332 12.2359 8.43922C12.2359 8.31703 12.2782 8.21599 12.3629 8.1361C12.4521 8.05151 12.5457 8.00922 12.6437 8.00922ZM12.5835 13C12.4855 13 12.4008 12.9624 12.3295 12.8872C12.2582 12.8073 12.2225 12.7204 12.2225 12.6264C12.2225 12.523 12.2559 12.4267 12.3228 12.3374L13.68 10.3989L14.1213 11.0826L12.9178 12.8026C12.8287 12.9342 12.7173 13 12.5835 13Z" fill="white"/>
</svg>
