<svg width="20" height="20" viewBox="0 0 20 20" fill="none" xmlns="http://www.w3.org/2000/svg">
<path d="M14.167 2.91667H5.83366C3.33366 2.91667 1.66699 4.16667 1.66699 7.08333V12.9167C1.66699 15.8333 3.33366 17.0833 5.83366 17.0833H14.167C16.667 17.0833 18.3337 15.8333 18.3337 12.9167V7.08333C18.3337 4.16667 16.667 2.91667 14.167 2.91667ZM14.5587 7.99167L11.9503 10.075C11.4003 10.5167 10.7003 10.7333 10.0003 10.7333C9.30033 10.7333 8.59199 10.5167 8.05033 10.075L5.44199 7.99167C5.17533 7.775 5.13366 7.375 5.34199 7.10833C5.55866 6.84167 5.95033 6.79167 6.21699 7.00833L8.82533 9.09167C9.45866 9.6 10.5337 9.6 11.167 9.09167L13.7753 7.00833C14.042 6.79167 14.442 6.83333 14.6503 7.10833C14.867 7.375 14.8253 7.775 14.5587 7.99167Z" fill="#F27449"/>
</svg>
