<svg width="299" height="163" viewBox="0 0 299 163" fill="none" xmlns="http://www.w3.org/2000/svg">
<rect x="70.0476" y="137.39" width="153.08" height="3.56042" rx="1.78021" fill="#9A9DB2"/>
<rect x="227.837" y="137.39" width="7.06521" height="3.56042" rx="1.78021" fill="#9A9DB2"/>
<rect x="32.3661" y="137.39" width="7.06521" height="3.56042" rx="1.78021" fill="#9A9DB2"/>
<rect x="241.967" y="137.39" width="16.4855" height="3.56042" rx="1.78021" fill="#9A9DB2"/>
<rect x="46.4968" y="137.39" width="16.4855" height="3.56042" rx="1.78021" fill="#9A9DB2"/>
<g opacity="0.6">
<rect x="55.9172" y="148.072" width="4.71014" height="3.56042" rx="1.78021" fill="#9A9DB2"/>
<rect x="67.6921" y="148.072" width="16.4855" height="3.56042" rx="1.78021" fill="#9A9DB2"/>
<rect x="201.932" y="148.072" width="32.971" height="3.56042" rx="1.78021" fill="#9A9DB2"/>
<rect x="91.243" y="148.072" width="105.978" height="3.56042" rx="1.78021" fill="#9A9DB2"/>
</g>
<g opacity="0.2">
<rect x="182.502" y="158.753" width="7.06521" height="3.56042" rx="1.78021" fill="#9A9DB2"/>
<rect x="101.252" y="158.753" width="11.7754" height="3.56042" rx="1.78021" fill="#9A9DB2"/>
<rect x="117.738" y="158.753" width="60.0543" height="3.56042" rx="1.78021" fill="#9A9DB2"/>
</g>
<g opacity="0.2">
<path d="M84.2155 71.5945C84.2155 57.1514 95.9474 45.4047 110.372 45.4047C124.797 45.4047 136.529 57.1514 136.529 71.5945V85.6836C136.529 96.2022 130.254 105.671 120.54 109.8C119.26 110.343 117.794 109.747 117.252 108.465C116.709 107.184 117.305 105.715 118.585 105.172C126.442 101.826 131.516 94.1822 131.516 85.6836V71.5945C131.516 59.9279 122.033 50.4326 110.381 50.4326C98.7293 50.4326 89.246 59.9279 89.246 71.5945V85.6836C89.246 96.5048 97.3961 105.439 107.866 106.694V96.1435C107.866 94.7552 108.986 93.6339 110.372 93.6339C111.759 93.6339 112.879 94.7552 112.879 96.1435V120.158C112.879 121.547 111.759 122.668 110.372 122.668C108.986 122.668 107.866 121.547 107.866 120.158V111.749C94.6143 110.476 84.2155 99.2724 84.2155 85.6836V71.5945Z" fill="#9A9DB2"/>
<rect x="107.556" y="84.0364" width="4.82896" height="6.43861" rx="2.41448" fill="#9A9DB2"/>
</g>
<rect x="130.895" y="27.6986" width="47.4847" height="81.2874" rx="23.7424" fill="white"/>
<path d="M128.481 50.5622C128.481 36.178 140.213 24.4792 154.638 24.4792C169.063 24.4792 180.795 36.178 180.795 50.5622V85.8346C180.795 96.3103 174.52 105.74 164.805 109.853C163.526 110.393 162.059 109.799 161.517 108.523C160.975 107.247 161.57 105.785 162.85 105.244C170.707 101.912 175.782 94.2985 175.782 85.8346V50.5622C175.782 38.9432 166.299 29.4867 154.647 29.4867C142.995 29.4867 133.511 38.9432 133.511 50.5622V85.8346C133.511 96.6116 141.662 105.51 152.131 106.759V88.2364C152.131 86.8538 153.251 85.7371 154.638 85.7371C156.024 85.7371 157.144 86.8538 157.144 88.2364V120.169C157.144 121.551 156.024 122.668 154.638 122.668C153.251 122.668 152.131 121.551 152.131 120.169V111.793C138.88 110.526 128.481 99.368 128.481 85.8346V50.5622Z" fill="#BABCC4"/>
<rect x="151.821" y="70.3544" width="4.82896" height="10.4627" rx="2.41448" fill="#BABCC4"/>
<rect x="48.803" y="12.4069" width="47.4847" height="96.5791" rx="23.7424" fill="white"/>
<path d="M46.3888 35.3774C46.3888 20.9342 58.1207 9.1875 72.5456 9.1875C86.9706 9.1875 98.7025 20.9342 98.7025 35.3774V85.6836C98.7025 96.2022 92.4277 105.671 82.7133 109.8C81.4334 110.343 79.967 109.747 79.4248 108.465C78.8826 107.184 79.4781 105.715 80.758 105.172C88.6148 101.826 93.6897 94.1822 93.6897 85.6836V35.3774C93.6897 23.7107 84.2064 14.2155 72.5545 14.2155C60.9026 14.2155 51.4193 23.7107 51.4193 35.3774V85.6836C51.4193 96.5048 59.5694 105.439 70.0393 106.694V88.0952C70.0393 86.707 71.1591 85.5857 72.5456 85.5857C73.9321 85.5857 75.052 86.707 75.052 88.0952V120.158C75.052 121.547 73.9321 122.668 72.5456 122.668C71.1591 122.668 70.0393 121.547 70.0393 120.158V111.749C56.7875 110.476 46.3888 99.2724 46.3888 85.6836V35.3774Z" fill="#999BA8"/>
<rect x="69.7287" y="70.3544" width="4.82896" height="10.4627" rx="2.41448" fill="#999BA8"/>
<path d="M157.687 64.1547C157.687 59.2388 161.672 55.2537 166.588 55.2537H228.522C233.438 55.2537 237.423 59.2388 237.423 64.1547V121.001H166.588C161.672 121.001 157.687 117.016 157.687 112.1V64.1547Z" fill="#FEF1ED"/>
<path d="M157.687 108.22C157.687 103.304 161.672 99.3186 166.588 99.3186H228.522C233.438 99.3186 237.423 103.304 237.423 108.22V121.001H166.588C161.672 121.001 157.687 117.016 157.687 112.1V108.22Z" fill="#F27449"/>
<path d="M160.236 62.0565C160.236 58.6153 163.025 55.8257 166.466 55.8257H228.792C232.234 55.8257 235.023 58.6153 235.023 62.0564V118.654H166.466C163.025 118.654 160.236 115.864 160.236 112.423V62.0565Z" stroke="#9A9DB2" stroke-width="5.34063" stroke-linejoin="round"/>
<line x1="157.565" y1="99.5188" x2="237.694" y2="99.5188" stroke="#9A9DB2" stroke-width="5.34063"/>
<path d="M236.776 79.1466H250.443C262.733 79.1466 272.695 89.1095 272.695 101.399V112.423C272.695 115.864 269.906 118.654 266.465 118.654H236.776V79.1466Z" fill="white" stroke="#9A9DB2" stroke-width="5.34063" stroke-linejoin="round"/>
<rect x="174.587" y="111.437" width="20.3722" height="20.3722" rx="10.1861" fill="#FEF1ED" stroke="#9A9DB2" stroke-width="5.34063"/>
<rect x="243.354" y="111.437" width="20.3722" height="20.3722" rx="10.1861" fill="#FEF1ED" stroke="#9A9DB2" stroke-width="5.34063"/>
<path d="M252.921 79.1649C263.024 79.5867 271.251 87.267 272.524 97.1269H259.152C255.711 97.1269 252.921 94.3373 252.921 90.8962V79.1649Z" fill="#FFF9F8" stroke="#9A9DB2" stroke-width="5.34063"/>
<rect x="151.585" y="65.7128" width="31.6925" height="3.58783" rx="1.79392" fill="#9A9DB2"/>
<rect x="130.059" y="72.8884" width="37.6722" height="3.58783" rx="1.79392" fill="#9A9DB2"/>
<rect x="143.068" y="80.0608" width="30.589" height="3.58783" rx="1.79392" transform="rotate(0.0218278 143.068 80.0608)" fill="#9A9DB2"/>
<rect x="17.6492" y="126.933" width="8.10484" height="2.70161" rx="1.35081" transform="rotate(30 17.6492 126.933)" fill="#F27449"/>
<rect x="17.2874" y="132.964" width="8.10484" height="2.70161" rx="1.35081" transform="rotate(-60 17.2874 132.964)" fill="#F27449"/>
<g opacity="0.8">
<rect x="2.37109" y="57.094" width="8.10484" height="2.70161" rx="1.35081" transform="rotate(-45 2.37109 57.094)" fill="#F27449"/>
<rect x="8.10211" y="59.0048" width="8.10484" height="2.70161" rx="1.35081" transform="rotate(-135 8.10211 59.0048)" fill="#F27449"/>
</g>
<g opacity="0.4">
<rect x="288.818" y="76.7719" width="8.10484" height="2.70161" rx="1.35081" transform="rotate(-30 288.818 76.7719)" fill="#F27449"/>
<rect x="293.86" y="80.1008" width="8.10484" height="2.70161" rx="1.35081" transform="rotate(-120 293.86 80.1008)" fill="#F27449"/>
</g>
<rect x="209.615" y="4.107" width="8.78024" height="8.78024" rx="4.39012" transform="rotate(-15 209.615 4.107)" stroke="#F27449" stroke-width="2.02621"/>
<g opacity="0.8">
<rect x="250.09" y="44.8345" width="6.07863" height="6.07863" rx="3.03931" transform="rotate(15 250.09 44.8345)" stroke="#F27449" stroke-width="2.02621"/>
<rect x="112.593" y="25.4372" width="5.06552" height="5.06552" rx="2.53276" transform="rotate(-30 112.593 25.4372)" stroke="#F27449" stroke-width="1.68851"/>
</g>
<rect x="37.585" y="18.7792" width="3.03931" height="3.03931" rx="1.51966" transform="rotate(-30 37.585 18.7792)" stroke="#F27449" stroke-width="1.0131"/>
<g opacity="0.4">
<rect x="286.621" y="131.516" width="2.70161" height="2.70161" rx="1.35081" transform="rotate(30 286.621 131.516)" stroke="#F27449" stroke-width="1.35081"/>
<rect x="32.8515" y="100.421" width="2.70161" height="2.70161" rx="1.35081" transform="rotate(15 32.8515 100.421)" stroke="#F27449" stroke-width="1.35081"/>
</g>
</svg>
