<svg width="299" height="136" viewBox="0 0 299 136" fill="none" xmlns="http://www.w3.org/2000/svg">
<path d="M187.999 76.924L178.022 77.1751C178.022 77.1751 175.738 77.2128 175.49 75.0031C175.242 72.7935 176.477 71.8017 176.477 71.8017L181.891 65.7754C181.891 65.7754 178.166 66.4533 177.534 64.2814C176.902 62.1094 177.815 61.0422 177.815 61.0422L183.824 54.882C183.824 54.882 180.45 54.7398 179.958 52.7812C179.467 50.8227 186.773 43.7627 187.722 43.905C188.672 44.0473 196.684 51.17 196.403 52.844C196.122 54.518 193.099 54.7691 193.099 54.7691C193.099 54.7691 199.567 62.0006 198.794 63.708C198.022 65.4155 194.367 65.88 194.367 65.88C194.367 65.88 202.206 73.0404 200.975 74.5721C199.744 76.1037 198.443 77.1709 198.443 77.1709L187.999 76.924Z" fill="white"/>
<path d="M175.176 71.241L179.64 66.7129H179.566C178.046 66.7129 176.737 65.8299 176.151 64.4029C175.568 62.9967 175.862 61.4483 176.907 60.3686L181.668 55.5434H181.639C180.396 55.5434 179.281 54.7901 178.798 53.6225C178.315 52.4507 178.558 51.1618 179.426 50.2704L185.707 43.9051C186.971 42.6246 189.027 42.6246 190.291 43.9051L196.54 50.2369L196.564 50.262C197.44 51.166 197.684 52.4507 197.196 53.6225C196.713 54.7901 195.598 55.5434 194.355 55.5434H194.326L199.059 60.3393C199.059 60.3393 199.084 60.3644 199.088 60.3686C200.141 61.4525 200.43 63.0009 199.848 64.407C199.257 65.8299 197.948 66.7171 196.432 66.7171H196.358L200.789 71.2117L200.818 71.241C201.991 72.4504 202.317 74.1746 201.665 75.744C201.008 77.3342 199.546 78.3219 197.853 78.3219H192.236C191.592 78.3219 191.072 77.7904 191.072 77.1417C191.072 76.4889 191.592 75.9616 192.236 75.9616H197.853C198.732 75.9616 199.29 75.3799 199.513 74.8358C199.798 74.1495 199.662 73.4255 199.154 72.9024L199.121 72.8689L192.72 66.3656C192.385 66.0266 192.286 65.5202 192.468 65.0766C192.649 64.633 193.075 64.3484 193.545 64.3484H196.436C197.283 64.3484 197.617 63.6914 197.7 63.4905C197.783 63.2938 198.002 62.6117 197.427 62.0216L190.688 55.196C190.353 54.8571 190.254 54.3507 190.436 53.9071C190.617 53.4677 191.043 53.1789 191.514 53.1789H194.359C194.817 53.1789 195.003 52.819 195.049 52.7102C195.107 52.5763 195.202 52.2289 194.884 51.8983L188.643 45.5749C188.288 45.215 187.71 45.215 187.355 45.5749L181.094 51.9193C180.797 52.2289 180.892 52.5763 180.95 52.7102C180.995 52.819 181.181 53.1789 181.639 53.1789H184.485C184.956 53.1789 185.381 53.4677 185.563 53.9071C185.744 54.3507 185.645 54.8571 185.311 55.196L178.604 61.9923L178.575 62.0216C178.001 62.6117 178.22 63.2938 178.302 63.4905C178.385 63.6914 178.724 64.3484 179.566 64.3484H182.457C182.928 64.3484 183.353 64.6372 183.535 65.0766C183.717 65.5202 183.617 66.0266 183.283 66.3656L176.874 72.8606L176.84 72.8982C176.332 73.4213 176.196 74.1453 176.481 74.8317C176.708 75.3757 177.262 75.9574 178.141 75.9574H187.566C187.714 75.9574 187.859 75.9867 187.991 76.0411C187.995 76.0411 187.995 76.0411 187.999 76.0411C188.643 76.0411 189.164 76.5684 189.164 77.2212V84.7625C189.164 85.4153 188.643 85.9426 187.999 85.9426C187.355 85.9426 186.835 85.4153 186.835 84.7625V78.3177H178.141C176.448 78.3177 174.986 77.3301 174.33 75.7398C173.681 74.1704 174.003 72.4463 175.176 71.241Z" fill="#E4E4E7"/>
<path d="M187.999 74.0991C187.371 74.0991 186.863 73.5844 186.863 72.9483C186.863 72.3122 187.371 71.7974 187.999 71.7974C188.627 71.7974 189.135 72.3122 189.135 72.9483C189.135 73.5844 188.627 74.0991 187.999 74.0991Z" fill="#E4E4E7"/>
<path d="M229.999 78.8116L222.16 79.0102C222.16 79.0102 220.365 79.0399 220.171 77.2928C219.976 75.5456 220.946 74.7614 220.946 74.7614L225.2 69.9964C225.2 69.9964 222.273 70.5325 221.777 68.8151C221.28 67.0977 221.998 66.2539 221.998 66.2539L226.719 61.3831C226.719 61.3831 224.068 61.2706 223.682 59.722C223.295 58.1734 229.036 52.5911 229.782 52.7036C230.528 52.8161 236.823 58.448 236.603 59.7716C236.382 61.0952 234.007 61.2938 234.007 61.2938C234.007 61.2938 239.088 67.0117 238.481 68.3618C237.874 69.7119 235.003 70.0792 235.003 70.0792C235.003 70.0792 241.162 75.7409 240.195 76.952C239.228 78.163 238.205 79.0068 238.205 79.0068L229.999 78.8116Z" fill="white"/>
<path d="M219.924 74.3182L223.432 70.7378H223.373C222.179 70.7378 221.151 70.0396 220.69 68.9112C220.232 67.7994 220.463 66.5751 221.284 65.7214L225.025 61.9061H225.002C224.026 61.9061 223.15 61.3105 222.77 60.3873C222.39 59.4607 222.582 58.4416 223.263 57.7367L228.198 52.7038C229.191 51.6912 230.807 51.6912 231.8 52.7038L236.71 57.7103L236.729 57.7301C237.417 58.4449 237.608 59.4607 237.226 60.3873C236.846 61.3105 235.97 61.9061 234.993 61.9061H234.97L238.689 65.6982C238.689 65.6982 238.708 65.7181 238.712 65.7214C239.539 66.5784 239.766 67.8027 239.309 68.9146C238.845 70.0396 237.816 70.7411 236.625 70.7411H236.567L240.049 74.295L240.071 74.3182C240.993 75.2745 241.249 76.6378 240.737 77.8786C240.221 79.1361 239.072 79.917 237.742 79.917H233.329C232.822 79.917 232.414 79.4967 232.414 78.9838C232.414 78.4676 232.822 78.0507 233.329 78.0507H237.742C238.433 78.0507 238.871 77.5908 239.046 77.1606C239.27 76.6179 239.163 76.0455 238.764 75.6318L238.738 75.6054L233.708 70.4632C233.445 70.1951 233.367 69.7947 233.51 69.444C233.653 69.0932 233.987 68.8682 234.357 68.8682H236.629C237.294 68.8682 237.557 68.3487 237.621 68.1899C237.686 68.0344 237.858 67.495 237.407 67.0284L232.112 61.6314C231.849 61.3634 231.771 60.963 231.914 60.6123C232.057 60.2648 232.391 60.0365 232.761 60.0365H234.996C235.357 60.0365 235.503 59.7519 235.538 59.6659C235.584 59.56 235.658 59.2854 235.409 59.0239L230.506 54.024C230.226 53.7395 229.772 53.7395 229.493 54.024L224.574 59.0405C224.34 59.2854 224.415 59.56 224.46 59.6659C224.496 59.7519 224.642 60.0365 225.002 60.0365H227.238C227.608 60.0365 227.942 60.2648 228.085 60.6123C228.228 60.963 228.15 61.3634 227.887 61.6314L222.617 67.0053L222.595 67.0284C222.144 67.495 222.316 68.0344 222.38 68.1899C222.445 68.3487 222.711 68.8682 223.373 68.8682H225.645C226.015 68.8682 226.349 69.0965 226.492 69.444C226.634 69.7947 226.557 70.1951 226.294 70.4632L221.258 75.5987L221.232 75.6285C220.833 76.0421 220.726 76.6146 220.95 77.1573C221.128 77.5874 221.563 78.0474 222.254 78.0474H229.659C229.775 78.0474 229.889 78.0706 229.993 78.1136C229.996 78.1136 229.996 78.1136 229.999 78.1136C230.506 78.1136 230.914 78.5305 230.914 79.0467V85.0095C230.914 85.5257 230.506 85.9427 229.999 85.9427C229.493 85.9427 229.084 85.5257 229.084 85.0095V79.9137H222.254C220.924 79.9137 219.775 79.1328 219.259 77.8753C218.75 76.6345 219.003 75.2711 219.924 74.3182Z" fill="#BABCC4"/>
<path d="M229.999 76.578C229.506 76.578 229.107 76.171 229.107 75.668C229.107 75.1651 229.506 74.7581 229.999 74.7581C230.492 74.7581 230.892 75.1651 230.892 75.668C230.892 76.171 230.492 76.578 229.999 76.578Z" fill="#BABCC4"/>
<path d="M211.499 73.9877L198.314 74.3206C198.314 74.3206 195.296 74.3705 194.969 71.4415C194.641 68.5124 196.273 67.1977 196.273 67.1977L203.428 59.2093C203.428 59.2093 198.505 60.108 197.67 57.2289C196.835 54.3498 198.041 52.9352 198.041 52.9352L205.982 44.7693C205.982 44.7693 201.523 44.5807 200.874 41.9845C200.224 39.3883 209.878 30.0298 211.133 30.2184C212.388 30.407 222.975 39.8488 222.604 42.0677C222.233 44.2867 218.238 44.6196 218.238 44.6196C218.238 44.6196 226.784 54.2055 225.764 56.4689C224.743 58.7323 219.914 59.348 219.914 59.348C219.914 59.348 230.272 68.8397 228.645 70.8701C227.019 72.9004 225.3 74.315 225.3 74.315L211.499 73.9877Z" fill="white"/>
<path d="M194.554 66.4545L200.453 60.4522H200.355C198.347 60.4522 196.617 59.2816 195.842 57.39C195.073 55.526 195.46 53.4735 196.841 52.0422L203.133 45.646H203.095C201.452 45.646 199.979 44.6475 199.34 43.0997C198.702 41.5465 199.024 39.8378 200.17 38.6562L208.47 30.2186C210.14 28.5211 212.858 28.5211 214.528 30.2186L222.784 38.6119L222.817 38.6451C223.974 39.8434 224.296 41.5465 223.652 43.0997C223.014 44.6475 221.54 45.646 219.898 45.646H219.859L226.113 52.0034C226.113 52.0034 226.146 52.0367 226.152 52.0422C227.543 53.479 227.925 55.5316 227.156 57.3955C226.375 59.2816 224.645 60.4577 222.643 60.4577H222.544L228.4 66.4157L228.438 66.4545C229.988 68.0577 230.419 70.3432 229.557 72.4235C228.689 74.5316 226.757 75.8408 224.52 75.8408H217.098C216.247 75.8408 215.559 75.1362 215.559 74.2764C215.559 73.411 216.247 72.712 217.098 72.712H224.52C225.682 72.712 226.419 71.9409 226.714 71.2197C227.09 70.31 226.91 69.3503 226.239 68.6568L226.195 68.6124L217.736 59.9917C217.294 59.5424 217.163 58.8711 217.404 58.2831C217.644 57.6951 218.206 57.3178 218.828 57.3178H222.648C223.767 57.3178 224.209 56.4469 224.318 56.1806C224.427 55.9199 224.716 55.0157 223.958 54.2335L215.052 45.1856C214.609 44.7362 214.479 44.065 214.719 43.477C214.959 42.8945 215.521 42.5117 216.143 42.5117H219.903C220.509 42.5117 220.754 42.0346 220.814 41.8904C220.891 41.7129 221.016 41.2524 220.596 40.8142L212.35 32.432C211.881 31.9549 211.117 31.9549 210.648 32.432L202.374 40.8419C201.981 41.2524 202.107 41.7129 202.183 41.8904C202.243 42.0346 202.489 42.5117 203.095 42.5117H206.855C207.477 42.5117 208.039 42.8945 208.279 43.477C208.519 44.065 208.388 44.7362 207.946 45.1856L199.084 54.1946L199.045 54.2335C198.287 55.0157 198.576 55.9199 198.685 56.1806C198.794 56.4469 199.242 57.3178 200.355 57.3178H204.175C204.797 57.3178 205.359 57.7006 205.6 58.2831C205.84 58.8711 205.709 59.5424 205.267 59.9917L196.797 68.6013L196.753 68.6513C196.082 69.3447 195.902 70.3044 196.279 71.2142C196.579 71.9354 197.31 72.7065 198.472 72.7065H210.926C211.122 72.7065 211.313 72.7453 211.488 72.8174C211.493 72.8174 211.493 72.8174 211.499 72.8174C212.35 72.8174 213.038 73.5164 213.038 74.3818V84.3783C213.038 85.2437 212.35 85.9427 211.499 85.9427C210.648 85.9427 209.96 85.2437 209.96 84.3783V75.8352H198.472C196.235 75.8352 194.303 74.526 193.435 72.418C192.579 70.3377 193.004 68.0522 194.554 66.4545Z" fill="#999BA8"/>
<path d="M211.499 70.2432C210.669 70.2432 209.998 69.5608 209.998 68.7176C209.998 67.8744 210.669 67.1921 211.499 67.1921C212.328 67.1921 213 67.8744 213 68.7176C213 69.5608 212.328 70.2432 211.499 70.2432Z" fill="#999BA8"/>
<path d="M147.801 57.5746H70.0106V89.3374H147.801V57.5746Z" fill="#FEF1ED"/>
<path d="M147.764 90.7848H70.0482C69.228 90.7848 68.5633 90.1201 68.5633 89.2999V57.6121C68.5633 56.7919 69.228 56.1271 70.0482 56.1271H147.769C148.59 56.1271 149.254 56.7919 149.254 57.6121V89.2999C149.249 90.1201 148.584 90.7848 147.764 90.7848ZM71.4581 87.8846H146.354V59.022H71.4581V87.8846Z" fill="#9A9DB2"/>
<path d="M66.4512 57.2529H150.246L147.802 43.1486H68.8958L66.4512 57.2529Z" fill="#F27449"/>
<path d="M150.246 58.7003H66.451C66.0222 58.7003 65.6201 58.5127 65.3413 58.1857C65.0679 57.8587 64.95 57.4244 65.0197 57.0063L67.4696 42.902C67.5875 42.2104 68.1933 41.7012 68.8956 41.7012H147.801C148.509 41.7012 149.109 42.2104 149.227 42.902L151.672 57.0063C151.747 57.4298 151.629 57.8587 151.35 58.1857C151.077 58.5127 150.675 58.7003 150.246 58.7003ZM68.1772 55.8055H148.525L146.585 44.6014H70.1178L68.1772 55.8055Z" fill="#9A9DB2"/>
<path d="M104.878 66.5003H94.8637V77.8652H104.878V66.5003Z" fill="white"/>
<path d="M104.84 79.3127H94.8958C94.0756 79.3127 93.4109 78.648 93.4109 77.8277V66.5379C93.4109 65.7177 94.0756 65.0529 94.8958 65.0529H104.84C105.66 65.0529 106.325 65.7177 106.325 66.5379V77.8277C106.325 78.648 105.66 79.3127 104.84 79.3127ZM96.3111 76.4125H103.43V67.9478H96.3111V76.4125Z" fill="#9A9DB2"/>
<path d="M122.268 66.5003H112.254V77.8652H122.268V66.5003Z" fill="white"/>
<path d="M122.231 79.3127H112.292C111.472 79.3127 110.807 78.648 110.807 77.8277V66.5379C110.807 65.7177 111.472 65.0529 112.292 65.0529H122.236C123.056 65.0529 123.721 65.7177 123.721 66.5379V77.8277C123.721 78.648 123.051 79.3127 122.231 79.3127ZM113.702 76.4125H120.821V67.9478H113.702V76.4125Z" fill="#9A9DB2"/>
<path d="M139.787 66.5003H129.773V77.8652H139.787V66.5003Z" fill="white"/>
<path d="M139.75 79.3127H129.806C128.986 79.3127 128.321 78.648 128.321 77.8277V66.5379C128.321 65.7177 128.986 65.0529 129.806 65.0529H139.75C140.57 65.0529 141.235 65.7177 141.235 66.5379V77.8277C141.235 78.648 140.57 79.3127 139.75 79.3127ZM131.221 76.4125H138.34V67.9478H131.221V76.4125Z" fill="#9A9DB2"/>
<path d="M87.407 66.5003H77.3929V77.8652H87.407V66.5003Z" fill="white"/>
<path d="M87.3695 79.3127H77.4251C76.6049 79.3127 75.9402 78.648 75.9402 77.8277V66.5379C75.9402 65.7177 76.6049 65.0529 77.4251 65.0529H87.3695C88.1897 65.0529 88.8544 65.7177 88.8544 66.5379V77.8277C88.8544 78.648 88.1897 79.3127 87.3695 79.3127ZM78.8404 76.4125H85.9596V67.9478H78.8404V76.4125Z" fill="#9A9DB2"/>
<path d="M182.107 63.5464H103.201V95.3093H182.107V63.5464Z" fill="#FEF1ED"/>
<path d="M182.07 96.7567H103.239C102.419 96.7567 101.754 96.092 101.754 95.2718V63.584C101.754 62.7638 102.419 62.0991 103.239 62.0991H182.07C182.89 62.0991 183.555 62.7638 183.555 63.584V95.2718C183.555 96.092 182.89 96.7567 182.07 96.7567ZM104.649 93.8565H180.654V64.9939H104.649V93.8565Z" fill="#9A9DB2"/>
<path d="M121.744 72.7939H110.626V83.9122H121.744V72.7939Z" fill="white"/>
<path d="M138.374 72.7081H129.169V84.1588H138.374V72.7081Z" fill="white"/>
<path d="M156.654 72.7939H147.423V82.9741H156.654V72.7939Z" fill="white"/>
<path d="M174.125 72.7939H163.945V82.9741H174.125V72.7939Z" fill="white"/>
<path d="M174.125 72.7939H164.111V84.1588H174.125V72.7939Z" fill="white"/>
<path d="M174.088 85.6062H164.143C163.323 85.6062 162.658 84.9415 162.658 84.1213V72.8314C162.658 72.0112 163.323 71.3464 164.143 71.3464H174.088C174.908 71.3464 175.573 72.0112 175.573 72.8314V84.1213C175.573 84.9415 174.908 85.6062 174.088 85.6062ZM165.559 82.706H172.678V74.2413H165.559V82.706Z" fill="#9A9DB2"/>
<path d="M156.654 72.7939H146.64V84.1588H156.654V72.7939Z" fill="white"/>
<path d="M156.616 85.6062H146.677C145.857 85.6062 145.193 84.9415 145.193 84.1213V72.8314C145.193 72.0112 145.857 71.3464 146.677 71.3464H156.622C157.442 71.3464 158.107 72.0112 158.107 72.8314V84.1213C158.101 84.9415 157.437 85.6062 156.616 85.6062ZM148.087 82.706H155.207V74.2413H148.087V82.706Z" fill="#9A9DB2"/>
<path d="M139.183 85.6062H129.169C128.37 85.6062 127.721 84.9575 127.721 84.1588V72.7939C127.721 71.9951 128.37 71.3464 129.169 71.3464H139.183C139.982 71.3464 140.63 71.9951 140.63 72.7939V84.1588C140.63 84.9575 139.982 85.6062 139.183 85.6062ZM130.616 82.706H137.735V74.2413H130.616V82.706Z" fill="#9A9DB2"/>
<path d="M121.712 85.6062H111.693C110.894 85.6062 110.245 84.9575 110.245 84.1588V72.7939C110.245 71.9951 110.894 71.3464 111.693 71.3464H121.707C122.506 71.3464 123.154 71.9951 123.154 72.7939V84.1588C123.16 84.9575 122.511 85.6062 121.712 85.6062ZM113.146 82.706H120.265V74.2413H113.146V82.706Z" fill="#9A9DB2"/>
<path d="M182.107 31.7836H103.201V63.5464H182.107V31.7836Z" fill="#FEF1ED"/>
<path d="M182.07 64.9939H103.239C102.419 64.9939 101.754 64.3291 101.754 63.5089V31.8211C101.754 31.0009 102.419 30.3362 103.239 30.3362H182.07C182.89 30.3362 183.555 31.0009 183.555 31.8211V63.5089C183.555 64.3291 182.89 64.9939 182.07 64.9939ZM104.649 62.099H180.654V33.2364H104.649V62.099Z" fill="#9A9DB2"/>
<path d="M182.107 59.3543H103.201V63.5411H182.107V59.3543Z" fill="white"/>
<path d="M182.07 64.9939H103.239C102.419 64.9939 101.754 64.3291 101.754 63.5089V59.3918C101.754 58.5716 102.419 57.9069 103.239 57.9069H182.07C182.89 57.9069 183.555 58.5716 183.555 59.3918V63.5089C183.555 64.3291 182.89 64.9939 182.07 64.9939ZM104.649 62.099H180.654V60.8071H104.649V62.099Z" fill="#9A9DB2"/>
<path d="M158.085 10.4476H126.966V16.7251H158.085V10.4476Z" fill="#FEF1ED"/>
<path d="M158.568 19.1321H126.741C125.942 19.1321 125.293 18.4834 125.293 17.6846V10.4475C125.293 9.64878 125.942 9.00012 126.741 9.00012H158.568C159.367 9.00012 160.015 9.64878 160.015 10.4475V17.6846C160.021 18.4834 159.372 19.1321 158.568 19.1321ZM128.188 16.2319H157.121V11.9003H128.188V16.2319Z" fill="#9A9DB2"/>
<path d="M174.125 41.031H164.111V52.3959H174.125V41.031Z" fill="white"/>
<path d="M156.654 41.9048H147.423V51.9027H156.654V41.9048Z" fill="white"/>
<path d="M138.374 41.4224H129.169V52.396H138.374V41.4224Z" fill="white"/>
<path d="M120.876 41.031H111.73V51.8974H120.876V41.031Z" fill="white"/>
<path d="M100.757 31.7836H184.552L182.107 17.6846H103.201L100.757 31.7836Z" fill="#F27449"/>
<path d="M184.552 33.2364H100.757C100.328 33.2364 99.9259 33.0488 99.6471 32.7218C99.3737 32.3947 99.2558 31.9605 99.3308 31.5424L101.775 17.4381C101.893 16.7412 102.499 16.2372 103.201 16.2372H182.107C182.815 16.2372 183.415 16.7465 183.533 17.4381L185.978 31.5424C186.053 31.9659 185.935 32.3947 185.656 32.7218C185.383 33.0434 184.981 33.2364 184.552 33.2364ZM102.483 30.3362H182.831L180.89 19.1321H104.424L102.483 30.3362Z" fill="#9A9DB2"/>
<path d="M174.125 53.8433H164.111C163.312 53.8433 162.663 53.1947 162.663 52.3959V41.031C162.663 40.2322 163.312 39.5836 164.111 39.5836H174.125C174.923 39.5836 175.572 40.2322 175.572 41.031V52.3959C175.572 53.1947 174.929 53.8433 174.125 53.8433ZM165.558 50.9485H172.677V42.4838H165.558V50.9485Z" fill="#9A9DB2"/>
<path d="M156.654 53.8433H146.64C145.841 53.8433 145.193 53.1947 145.193 52.3959V41.031C145.193 40.2322 145.841 39.5836 146.64 39.5836H156.654C157.453 39.5836 158.101 40.2322 158.101 41.031V52.3959C158.101 53.1947 157.453 53.8433 156.654 53.8433ZM148.087 50.9485H155.207V42.4838H148.087V50.9485Z" fill="#9A9DB2"/>
<path d="M139.183 53.8433H129.169C128.37 53.8433 127.721 53.1947 127.721 52.3959V41.031C127.721 40.2322 128.37 39.5836 129.169 39.5836H139.183C139.982 39.5836 140.63 40.2322 140.63 41.031V52.3959C140.63 53.1947 139.982 53.8433 139.183 53.8433ZM130.616 50.9485H137.735V42.4838H130.616V50.9485Z" fill="#9A9DB2"/>
<path d="M121.707 41.0311H111.693V52.396H121.707V41.0311Z" fill="white"/>
<path d="M121.675 53.8433H111.73C110.91 53.8433 110.245 53.1786 110.245 52.3584V41.0685C110.245 40.2483 110.91 39.5836 111.73 39.5836H121.675C122.495 39.5836 123.16 40.2483 123.16 41.0685V52.3584C123.16 53.1786 122.495 53.8433 121.675 53.8433ZM113.146 50.9485H120.265V42.4838H113.146V50.9485Z" fill="#9A9DB2"/>
<rect x="65.3336" y="100" width="171.979" height="4" rx="2" fill="#9A9DB2"/>
<rect x="242.604" y="100" width="7.9375" height="4" rx="2" fill="#9A9DB2"/>
<rect x="23.0001" y="100" width="7.9375" height="4" rx="2" fill="#9A9DB2"/>
<rect x="258.479" y="100" width="18.5208" height="4" rx="2" fill="#9A9DB2"/>
<rect x="38.8751" y="100" width="18.5208" height="4" rx="2" fill="#9A9DB2"/>
<g opacity="0.6">
<rect x="49.459" y="112" width="5.29167" height="4" rx="2" fill="#9A9DB2"/>
<rect x="62.688" y="112" width="18.5208" height="4" rx="2" fill="#9A9DB2"/>
<rect x="213.501" y="112" width="37.0417" height="4" rx="2" fill="#9A9DB2"/>
<rect x="89.1465" y="112" width="119.062" height="4" rx="2" fill="#9A9DB2"/>
</g>
<g opacity="0.2">
<rect x="191.672" y="124" width="7.9375" height="4" rx="2" fill="#9A9DB2"/>
<rect x="100.391" y="124" width="13.2292" height="4" rx="2" fill="#9A9DB2"/>
<rect x="118.912" y="124" width="67.4688" height="4" rx="2" fill="#9A9DB2"/>
</g>
<rect x="17.6492" y="126.756" width="8.10484" height="2.70161" rx="1.35081" transform="rotate(30 17.6492 126.756)" fill="#F27449"/>
<rect x="17.2874" y="132.787" width="8.10484" height="2.70161" rx="1.35081" transform="rotate(-60 17.2874 132.787)" fill="#F27449"/>
<g opacity="0.8">
<rect x="2.37134" y="56.9171" width="8.10484" height="2.70161" rx="1.35081" transform="rotate(-45 2.37134 56.9171)" fill="#F27449"/>
<rect x="8.10236" y="58.8279" width="8.10484" height="2.70161" rx="1.35081" transform="rotate(-135 8.10236 58.8279)" fill="#F27449"/>
</g>
<g opacity="0.4">
<rect x="288.818" y="76.5948" width="8.10484" height="2.70161" rx="1.35081" transform="rotate(-30 288.818 76.5948)" fill="#F27449"/>
<rect x="293.86" y="79.9238" width="8.10484" height="2.70161" rx="1.35081" transform="rotate(-120 293.86 79.9238)" fill="#F27449"/>
</g>
<rect x="209.615" y="3.93006" width="8.78024" height="8.78024" rx="4.39012" transform="rotate(-15 209.615 3.93006)" stroke="#F27449" stroke-width="2.02621"/>
<g opacity="0.8">
<rect x="250.09" y="44.6575" width="6.07863" height="6.07863" rx="3.03931" transform="rotate(15 250.09 44.6575)" stroke="#F27449" stroke-width="2.02621"/>
<rect x="112.593" y="25.2601" width="5.06552" height="5.06552" rx="2.53276" transform="rotate(-30 112.593 25.2601)" stroke="#F27449" stroke-width="1.68851"/>
</g>
<rect x="37.585" y="18.6022" width="3.03931" height="3.03931" rx="1.51966" transform="rotate(-30 37.585 18.6022)" stroke="#F27449" stroke-width="1.0131"/>
<g opacity="0.4">
<rect x="286.621" y="115.339" width="2.70161" height="2.70161" rx="1.35081" transform="rotate(30 286.621 115.339)" stroke="#F27449" stroke-width="1.35081"/>
<rect x="32.8513" y="74.2439" width="2.70161" height="2.70161" rx="1.35081" transform="rotate(15 32.8513 74.2439)" stroke="#F27449" stroke-width="1.35081"/>
</g>
</svg>
