<svg width="281" height="138" viewBox="0 0 281 138" fill="none" xmlns="http://www.w3.org/2000/svg">
<rect x="157.119" y="54.3188" width="54.1259" height="10.1486" transform="rotate(15 157.119 54.3188)" fill="#FEF1ED" stroke="#9A9DB2" stroke-width="3.38287"/>
<rect x="159.394" y="65.4349" width="43.9773" height="50.743" transform="rotate(15 159.394 65.4349)" fill="#FEF1ED" stroke="#9A9DB2" stroke-width="3.38287"/>
<rect x="194.869" y="102.958" width="43.9773" height="11.84" transform="rotate(-165 194.869 102.958)" fill="#F27449" stroke="#9A9DB2" stroke-width="3.38287"/>
<path d="M171.535 57.3057C166.055 53.7944 164.587 43.8189 174.818 45.052C180.755 45.7676 182.724 54.7586 183.788 60.5889" stroke="#9A9DB2" stroke-width="3.38287" stroke-linecap="round" stroke-linejoin="round"/>
<path d="M196.042 63.8723C202.544 63.5714 208.803 55.6666 199.326 51.6189C193.826 49.2699 187.626 56.0721 183.789 60.5892" stroke="#9A9DB2" stroke-width="3.38287" stroke-linecap="round" stroke-linejoin="round"/>
<rect x="188.162" y="62.6365" width="60.8916" height="10.1486" transform="rotate(105 188.162 62.6365)" fill="#F27449" stroke="#9A9DB2" stroke-width="3.38287"/>
<path d="M87.4022 20.2118C83.4538 21.0763 78.4282 17.3405 83.4627 13.3891C86.3843 11.0959 91.197 14.1798 94.2247 16.2728" stroke="#9A9DB2" stroke-width="1.69143" stroke-linecap="round" stroke-linejoin="round"/>
<path d="M101.047 12.3335C103.77 9.34639 103.047 3.12622 97.1079 5.51047C93.6612 6.89413 93.9256 12.604 94.2243 16.2725" stroke="#9A9DB2" stroke-width="1.69143" stroke-linecap="round" stroke-linejoin="round"/>
<rect x="79.8646" y="24.7253" width="34.0237" height="6.71214" transform="rotate(-30 79.8646 24.7253)" fill="#FEF1ED" stroke="#9A9DB2" stroke-width="1.69143"/>
<rect x="85.9728" y="29.0013" width="27.7211" height="31.4685" transform="rotate(-30 85.9728 29.0013)" fill="#FEF1ED" stroke="#9A9DB2" stroke-width="1.69143"/>
<rect x="118.361" y="29.6574" width="27.7211" height="7.76258" transform="rotate(150 118.361 29.6574)" fill="#F27449" stroke="#9A9DB2" stroke-width="1.69143"/>
<rect x="97.5043" y="14.5414" width="38.2255" height="6.71213" transform="rotate(60 97.5043 14.5414)" fill="#F27449" stroke="#9A9DB2" stroke-width="1.69143"/>
<rect x="17.2015" y="128.22" width="8.10484" height="2.70161" rx="1.35081" transform="rotate(30 17.2015 128.22)" fill="#F27449"/>
<rect x="16.8397" y="134.251" width="8.10484" height="2.70161" rx="1.35081" transform="rotate(-60 16.8397 134.251)" fill="#F27449"/>
<g opacity="0.8">
<rect x="1.92395" y="58.3815" width="8.10484" height="2.70161" rx="1.35081" transform="rotate(-45 1.92395 58.3815)" fill="#F27449"/>
<rect x="7.65497" y="60.2922" width="8.10484" height="2.70161" rx="1.35081" transform="rotate(-135 7.65497 60.2922)" fill="#F27449"/>
</g>
<g opacity="0.4">
<rect x="271.266" y="90.6527" width="8.10484" height="2.70161" rx="1.35081" transform="rotate(-30 271.266 90.6527)" fill="#F27449"/>
<rect x="276.307" y="93.9817" width="8.10484" height="2.70161" rx="1.35081" transform="rotate(-120 276.307 93.9817)" fill="#F27449"/>
</g>
<rect x="209.167" y="5.39435" width="8.78024" height="8.78024" rx="4.39012" transform="rotate(-15 209.167 5.39435)" stroke="#F27449" stroke-width="2.02621"/>
<g opacity="0.8">
<rect x="249.643" y="46.1218" width="6.07863" height="6.07863" rx="3.03931" transform="rotate(15 249.643 46.1218)" stroke="#F27449" stroke-width="2.02621"/>
<rect x="112.146" y="83.6224" width="5.06552" height="5.06552" rx="2.53276" transform="rotate(-30 112.146 83.6224)" stroke="#F27449" stroke-width="1.68851"/>
</g>
<rect x="37.1373" y="20.0665" width="3.03931" height="3.03931" rx="1.51966" transform="rotate(-30 37.1373 20.0665)" stroke="#F27449" stroke-width="1.0131"/>
<g opacity="0.4">
<rect x="221.8" y="132.804" width="2.70161" height="2.70161" rx="1.35081" transform="rotate(30 221.8 132.804)" stroke="#F27449" stroke-width="1.35081"/>
<rect x="73.0302" y="87.1406" width="2.70161" height="2.70161" rx="1.35081" transform="rotate(15 73.0302 87.1406)" stroke="#F27449" stroke-width="1.35081"/>
</g>
</svg>
