<svg width="782" height="976" viewBox="0 0 782 976" fill="none" xmlns="http://www.w3.org/2000/svg">
<rect x="159" y="896.955" width="12" height="4" rx="2" transform="rotate(30 159 896.955)" fill="#F27449"/>
<rect x="158.464" y="905.883" width="12" height="4" rx="2" transform="rotate(-60 158.464 905.883)" fill="#F27449"/>
<g opacity="0.8">
<rect x="21.8281" y="557.804" width="12" height="4" rx="2" transform="rotate(-45 21.8281 557.804)" fill="#F27449"/>
<rect x="30.3135" y="560.634" width="12" height="4" rx="2" transform="rotate(-135 30.3135 560.634)" fill="#F27449"/>
</g>
<g opacity="0.4">
<rect x="767" y="308.955" width="12" height="4" rx="2" transform="rotate(-30 767 308.955)" fill="#F27449"/>
<rect x="774.464" y="313.884" width="12" height="4" rx="2" transform="rotate(-120 774.464 313.884)" fill="#F27449"/>
</g>
<rect x="682.837" y="191.693" width="13" height="13" rx="6.5" transform="rotate(-15 682.837 191.693)" stroke="#F27449" stroke-width="3"/>
<g opacity="0.8">
<rect x="659.167" y="317.328" width="9" height="9" rx="4.5" transform="rotate(15 659.167 317.328)" stroke="#F27449" stroke-width="3"/>
<rect x="444.708" y="197.949" width="7.5" height="7.5" rx="3.75" transform="rotate(-30 444.708 197.949)" stroke="#F27449" stroke-width="2.5"/>
</g>
<rect x="96.0245" y="430.765" width="4.5" height="4.5" rx="2.25" transform="rotate(-30 96.0245 430.765)" stroke="#F27449" stroke-width="1.5"/>
<g opacity="0.4">
<rect x="513.366" y="681.857" width="4" height="4" rx="2" transform="rotate(30 513.366 681.857)" stroke="#F27449" stroke-width="2"/>
<rect x="2.26002" y="439.716" width="4" height="4" rx="2" transform="rotate(15 2.26002 439.716)" stroke="#F27449" stroke-width="2"/>
</g>
<rect x="233.542" y="473.512" width="32" height="6" transform="rotate(15 233.542 473.512)" fill="#FEF1ED" stroke="#9A9DB2" stroke-width="2"/>
<rect x="234.887" y="480.084" width="26" height="30" transform="rotate(15 234.887 480.084)" fill="#FEF1ED" stroke="#9A9DB2" stroke-width="2"/>
<rect x="255.86" y="502.268" width="26" height="7" transform="rotate(-165 255.86 502.268)" fill="#F27449" stroke="#9A9DB2" stroke-width="2"/>
<path d="M242.065 475.278C238.825 473.202 237.957 467.304 244.006 468.033C247.516 468.456 248.68 473.772 249.309 477.219" stroke="#9A9DB2" stroke-width="2" stroke-linecap="round" stroke-linejoin="round"/>
<path d="M256.554 479.16C260.398 478.982 264.098 474.309 258.495 471.916C255.244 470.527 251.578 474.549 249.31 477.219" stroke="#9A9DB2" stroke-width="2" stroke-linecap="round" stroke-linejoin="round"/>
<rect x="251.895" y="478.43" width="36" height="6" transform="rotate(105 251.895 478.43)" fill="#F27449" stroke="#9A9DB2" stroke-width="2"/>
<path d="M192.325 453.347C189.99 453.859 187.019 451.65 189.996 449.314C191.723 447.958 194.568 449.781 196.358 451.019" stroke="#9A9DB2" stroke-linecap="round" stroke-linejoin="round"/>
<path d="M200.392 448.69C202.001 446.924 201.574 443.246 198.063 444.656C196.025 445.474 196.181 448.85 196.358 451.019" stroke="#9A9DB2" stroke-linecap="round" stroke-linejoin="round"/>
<rect x="187.868" y="456.016" width="20.1153" height="3.96831" transform="rotate(-30 187.868 456.016)" fill="#FEF1ED" stroke="#9A9DB2"/>
<rect x="191.479" y="458.544" width="16.3891" height="18.6046" transform="rotate(-30 191.479 458.544)" fill="#FEF1ED" stroke="#9A9DB2"/>
<rect x="210.628" y="458.932" width="16.3891" height="4.58935" transform="rotate(150 210.628 458.932)" fill="#F27449" stroke="#9A9DB2"/>
<rect x="198.297" y="449.995" width="22.5995" height="3.96831" transform="rotate(60 198.297 449.995)" fill="#F27449" stroke="#9A9DB2"/>
<path d="M283.5 147.491C382 147.491 465.056 156.809 522.5 171.991C592.5 190.491 618.5 205.721 628.5 227.491C640.443 253.491 603.5 266.761 592.5 272.761" stroke="#9A9DB2" stroke-width="4" stroke-linecap="round" stroke-linejoin="round"/>
<path d="M544.5 293.761L476 318.761" stroke="#9A9DB2" stroke-width="4" stroke-linecap="round" stroke-linejoin="round"/>
<path d="M577 278.761L563 284.761" stroke="#9A9DB2" stroke-width="4" stroke-linecap="round" stroke-linejoin="round"/>
<path d="M362.5 364.261C359 366.761 122 410.261 105 488.761C95.5531 532.382 132.424 561.336 203 588.234" stroke="#9A9DB2" stroke-width="4" stroke-linecap="round" stroke-linejoin="round"/>
<path d="M224.5 595.991L241 603.991" stroke="#9A9DB2" stroke-width="4" stroke-linecap="round" stroke-linejoin="round"/>
<path d="M289 623.491L399 670.991" stroke="#9A9DB2" stroke-width="4" stroke-linecap="round" stroke-linejoin="round"/>
<path d="M418.5 678.991C453.5 696.991 535.283 731.029 495 765.991C468.5 788.991 347.155 801.74 289.5 826.991C220.292 857.302 226 948.491 384.5 948.491" stroke="#9A9DB2" stroke-width="4" stroke-linecap="round" stroke-linejoin="round"/>
<path d="M574.999 924.415L565.021 924.666C565.021 924.666 562.738 924.704 562.49 922.494C562.242 920.284 563.477 919.292 563.477 919.292L568.891 913.266C568.891 913.266 565.166 913.944 564.534 911.772C563.902 909.6 564.815 908.533 564.815 908.533L570.824 902.373C570.824 902.373 567.45 902.231 566.958 900.272C566.467 898.313 573.772 891.254 574.722 891.396C575.672 891.538 583.684 898.661 583.403 900.335C583.122 902.009 580.099 902.26 580.099 902.26C580.099 902.26 586.567 909.491 585.794 911.199C585.022 912.906 581.367 913.371 581.367 913.371C581.367 913.371 589.206 920.531 587.975 922.063C586.744 923.595 585.443 924.662 585.443 924.662L574.999 924.415Z" fill="white"/>
<path d="M562.176 918.732L566.64 914.204H566.566C565.046 914.204 563.737 913.321 563.151 911.894C562.568 910.488 562.862 908.939 563.906 907.859L568.668 903.034H568.639C567.396 903.034 566.281 902.281 565.798 901.113C565.315 899.942 565.558 898.653 566.426 897.761L572.707 891.396C573.971 890.115 576.027 890.115 577.291 891.396L583.54 897.728L583.564 897.753C584.44 898.657 584.683 899.942 584.196 901.113C583.713 902.281 582.598 903.034 581.355 903.034H581.326L586.059 907.83C586.059 907.83 586.083 907.855 586.088 907.859C587.141 908.943 587.43 910.492 586.847 911.898C586.257 913.321 584.948 914.208 583.432 914.208H583.358L587.789 918.703L587.818 918.732C588.991 919.941 589.317 921.665 588.665 923.235C588.008 924.825 586.546 925.813 584.853 925.813H579.236C578.592 925.813 578.072 925.281 578.072 924.633C578.072 923.98 578.592 923.452 579.236 923.452H584.853C585.732 923.452 586.29 922.871 586.513 922.327C586.798 921.64 586.662 920.916 586.154 920.393L586.121 920.36L579.719 913.856C579.385 913.517 579.286 913.011 579.468 912.567C579.649 912.124 580.075 911.839 580.545 911.839H583.436C584.283 911.839 584.617 911.182 584.7 910.981C584.783 910.785 585.001 910.103 584.427 909.512L577.688 902.687C577.353 902.348 577.254 901.842 577.436 901.398C577.617 900.959 578.043 900.67 578.514 900.67H581.359C581.817 900.67 582.003 900.31 582.049 900.201C582.106 900.067 582.201 899.72 581.883 899.389L575.643 893.066C575.288 892.706 574.71 892.706 574.355 893.066L568.094 899.41C567.797 899.72 567.892 900.067 567.95 900.201C567.995 900.31 568.181 900.67 568.639 900.67H571.485C571.955 900.67 572.381 900.959 572.563 901.398C572.744 901.842 572.645 902.348 572.311 902.687L565.604 909.483L565.575 909.512C565.001 910.103 565.22 910.785 565.302 910.981C565.385 911.182 565.724 911.839 566.566 911.839H569.457C569.928 911.839 570.353 912.128 570.535 912.567C570.717 913.011 570.617 913.517 570.283 913.856L563.873 920.351L563.84 920.389C563.332 920.912 563.196 921.636 563.481 922.323C563.708 922.867 564.262 923.448 565.141 923.448H574.565C574.714 923.448 574.859 923.478 574.991 923.532C574.995 923.532 574.995 923.532 574.999 923.532C575.643 923.532 576.164 924.059 576.164 924.712V932.253C576.164 932.906 575.643 933.433 574.999 933.433C574.355 933.433 573.834 932.906 573.834 932.253V925.809H565.141C563.448 925.809 561.986 924.821 561.329 923.231C560.681 921.661 561.003 919.937 562.176 918.732Z" fill="#E4E4E7"/>
<path d="M574.999 921.59C574.371 921.59 573.863 921.075 573.863 920.439C573.863 919.803 574.371 919.288 574.999 919.288C575.627 919.288 576.135 919.803 576.135 920.439C576.135 921.075 575.627 921.59 574.999 921.59Z" fill="#E4E4E7"/>
<path d="M616.999 926.302L609.16 926.501C609.16 926.501 607.365 926.531 607.171 924.784C606.976 923.036 607.946 922.252 607.946 922.252L612.2 917.487C612.2 917.487 609.273 918.023 608.777 916.306C608.28 914.589 608.997 913.745 608.997 913.745L613.719 908.874C613.719 908.874 611.068 908.761 610.682 907.213C610.295 905.664 616.035 900.082 616.782 900.194C617.528 900.307 623.823 905.939 623.602 907.262C623.382 908.586 621.007 908.785 621.007 908.785C621.007 908.785 626.088 914.503 625.481 915.853C624.874 917.203 622.003 917.57 622.003 917.57C622.003 917.57 628.161 923.232 627.194 924.443C626.228 925.654 625.205 926.498 625.205 926.498L616.999 926.302Z" fill="white"/>
<path d="M606.924 921.809L610.432 918.229H610.373C609.179 918.229 608.151 917.53 607.69 916.402C607.232 915.29 607.463 914.066 608.284 913.212L612.025 909.397H612.002C611.026 909.397 610.149 908.801 609.77 907.878C609.39 906.952 609.582 905.932 610.263 905.228L615.198 900.195C616.191 899.182 617.807 899.182 618.8 900.195L623.71 905.201L623.729 905.221C624.417 905.936 624.608 906.952 624.226 907.878C623.846 908.801 622.97 909.397 621.993 909.397H621.97L625.689 913.189C625.689 913.189 625.708 913.209 625.712 913.212C626.539 914.069 626.766 915.294 626.309 916.405C625.845 917.53 624.816 918.232 623.625 918.232H623.567L627.049 921.786L627.071 921.809C627.993 922.765 628.249 924.129 627.736 925.369C627.221 926.627 626.072 927.408 624.741 927.408H620.328C619.822 927.408 619.413 926.988 619.413 926.475C619.413 925.958 619.822 925.542 620.328 925.542H624.741C625.433 925.542 625.871 925.082 626.046 924.651C626.27 924.109 626.163 923.536 625.764 923.123L625.738 923.096L620.708 917.954C620.445 917.686 620.367 917.286 620.51 916.935C620.653 916.584 620.987 916.359 621.357 916.359H623.628C624.294 916.359 624.557 915.84 624.621 915.681C624.686 915.525 624.858 914.986 624.407 914.519L619.112 909.122C618.849 908.854 618.771 908.454 618.914 908.103C619.057 907.756 619.391 907.527 619.761 907.527H621.996C622.357 907.527 622.503 907.243 622.538 907.157C622.584 907.051 622.658 906.776 622.408 906.515L617.505 901.515C617.226 901.23 616.772 901.23 616.493 901.515L611.574 906.531C611.34 906.776 611.415 907.051 611.46 907.157C611.496 907.243 611.642 907.527 612.002 907.527H614.238C614.608 907.527 614.942 907.756 615.085 908.103C615.228 908.454 615.15 908.854 614.887 909.122L609.617 914.496L609.595 914.519C609.144 914.986 609.316 915.525 609.38 915.681C609.445 915.84 609.711 916.359 610.373 916.359H612.645C613.015 916.359 613.349 916.587 613.492 916.935C613.634 917.286 613.557 917.686 613.294 917.954L608.258 923.09L608.232 923.119C607.833 923.533 607.726 924.105 607.949 924.648C608.128 925.078 608.563 925.538 609.254 925.538H616.659C616.775 925.538 616.889 925.561 616.993 925.604C616.996 925.604 616.996 925.604 616.999 925.604C617.505 925.604 617.914 926.021 617.914 926.538V932.5C617.914 933.017 617.505 933.434 616.999 933.434C616.493 933.434 616.084 933.017 616.084 932.5V927.405H609.254C607.923 927.405 606.775 926.624 606.259 925.366C605.749 924.125 606.003 922.762 606.924 921.809Z" fill="#BABCC4"/>
<path d="M616.999 924.069C616.506 924.069 616.107 923.662 616.107 923.159C616.107 922.656 616.506 922.249 616.999 922.249C617.492 922.249 617.892 922.656 617.892 923.159C617.892 923.662 617.492 924.069 616.999 924.069Z" fill="#BABCC4"/>
<path d="M598.499 921.479L585.314 921.811C585.314 921.811 582.296 921.861 581.969 918.932C581.641 916.003 583.273 914.688 583.273 914.688L590.427 906.7C590.427 906.7 585.505 907.599 584.67 904.72C583.835 901.841 585.041 900.426 585.041 900.426L592.981 892.26C592.981 892.26 588.523 892.072 587.873 889.475C587.224 886.879 596.878 877.521 598.133 877.709C599.388 877.898 609.975 887.34 609.604 889.559C609.233 891.778 605.238 892.11 605.238 892.11C605.238 892.11 613.784 901.696 612.764 903.96C611.743 906.223 606.914 906.839 606.914 906.839C606.914 906.839 617.272 916.331 615.645 918.361C614.019 920.391 612.3 921.806 612.3 921.806L598.499 921.479Z" fill="white"/>
<path d="M581.554 913.945L587.453 907.943H587.355C585.347 907.943 583.617 906.772 582.842 904.881C582.073 903.017 582.46 900.964 583.841 899.533L590.133 893.137H590.095C588.452 893.137 586.979 892.138 586.34 890.591C585.702 889.037 586.024 887.329 587.17 886.147L595.47 877.709C597.14 876.012 599.858 876.012 601.528 877.709L609.784 886.103L609.817 886.136C610.974 887.334 611.296 889.037 610.652 890.591C610.014 892.138 608.54 893.137 606.897 893.137H606.859L613.113 899.494C613.113 899.494 613.146 899.528 613.151 899.533C614.543 900.97 614.925 903.022 614.156 904.886C613.375 906.772 611.645 907.949 609.642 907.949H609.544L615.4 913.907L615.438 913.945C616.988 915.549 617.419 917.834 616.557 919.914C615.689 922.022 613.757 923.332 611.52 923.332H604.098C603.247 923.332 602.559 922.627 602.559 921.767C602.559 920.902 603.247 920.203 604.098 920.203H611.52C612.682 920.203 613.419 919.432 613.714 918.711C614.09 917.801 613.91 916.841 613.239 916.148L613.195 916.103L604.736 907.483C604.294 907.033 604.163 906.362 604.404 905.774C604.644 905.186 605.206 904.809 605.828 904.809H609.648C610.767 904.809 611.209 903.938 611.318 903.671C611.427 903.411 611.716 902.506 610.958 901.724L602.051 892.676C601.609 892.227 601.478 891.556 601.719 890.968C601.959 890.385 602.521 890.003 603.143 890.003H606.903C607.509 890.003 607.754 889.525 607.814 889.381C607.891 889.204 608.016 888.743 607.596 888.305L599.35 879.923C598.881 879.446 598.117 879.446 597.647 879.923L589.374 888.333C588.981 888.743 589.107 889.204 589.183 889.381C589.243 889.525 589.489 890.003 590.095 890.003H593.855C594.477 890.003 595.039 890.385 595.279 890.968C595.519 891.556 595.388 892.227 594.946 892.676L586.084 901.685L586.045 901.724C585.287 902.506 585.576 903.411 585.685 903.671C585.794 903.938 586.242 904.809 587.355 904.809H591.175C591.797 904.809 592.359 905.191 592.6 905.774C592.84 906.362 592.709 907.033 592.267 907.483L583.797 916.092L583.753 916.142C583.082 916.836 582.902 917.795 583.279 918.705C583.579 919.426 584.31 920.197 585.472 920.197H597.926C598.122 920.197 598.313 920.236 598.488 920.308C598.493 920.308 598.493 920.308 598.499 920.308C599.35 920.308 600.038 921.007 600.038 921.873V931.869C600.038 932.735 599.35 933.434 598.499 933.434C597.647 933.434 596.96 932.735 596.96 931.869V923.326H585.472C583.235 923.326 581.303 922.017 580.435 919.909C579.579 917.829 580.004 915.543 581.554 913.945Z" fill="#999BA8"/>
<path d="M598.499 917.734C597.669 917.734 596.998 917.052 596.998 916.209C596.998 915.365 597.669 914.683 598.499 914.683C599.328 914.683 599.999 915.365 599.999 916.209C599.999 917.052 599.328 917.734 598.499 917.734Z" fill="#999BA8"/>
<path d="M534.801 905.065H457.011V936.828H534.801V905.065Z" fill="#FEF1ED"/>
<path d="M534.764 938.276H457.048C456.228 938.276 455.563 937.611 455.563 936.791V905.103C455.563 904.283 456.228 903.618 457.048 903.618H534.769C535.59 903.618 536.254 904.283 536.254 905.103V936.791C536.249 937.611 535.584 938.276 534.764 938.276ZM458.458 935.376H533.354V906.513H458.458V935.376Z" fill="#9A9DB2"/>
<path d="M453.451 904.744H537.246L534.802 890.639H455.896L453.451 904.744Z" fill="#F27449"/>
<path d="M537.246 906.191H453.451C453.022 906.191 452.62 906.004 452.341 905.677C452.068 905.35 451.95 904.915 452.02 904.497L454.47 890.393C454.587 889.701 455.193 889.192 455.895 889.192H534.801C535.509 889.192 536.109 889.701 536.227 890.393L538.672 904.497C538.747 904.921 538.629 905.35 538.35 905.677C538.077 906.004 537.675 906.191 537.246 906.191ZM455.177 903.296H535.525L533.584 892.092H457.118L455.177 903.296Z" fill="#9A9DB2"/>
<path d="M491.878 913.991H481.864V925.356H491.878V913.991Z" fill="white"/>
<path d="M491.84 926.804H481.896C481.076 926.804 480.411 926.139 480.411 925.319V914.029C480.411 913.209 481.076 912.544 481.896 912.544H491.84C492.66 912.544 493.325 913.209 493.325 914.029V925.319C493.325 926.139 492.66 926.804 491.84 926.804ZM483.311 923.903H490.43V915.439H483.311V923.903Z" fill="#9A9DB2"/>
<path d="M509.268 913.991H499.254V925.356H509.268V913.991Z" fill="white"/>
<path d="M509.231 926.804H499.292C498.472 926.804 497.807 926.139 497.807 925.319V914.029C497.807 913.209 498.472 912.544 499.292 912.544H509.236C510.056 912.544 510.721 913.209 510.721 914.029V925.319C510.721 926.139 510.051 926.804 509.231 926.804ZM500.702 923.903H507.821V915.439H500.702V923.903Z" fill="#9A9DB2"/>
<path d="M526.787 913.991H516.773V925.356H526.787V913.991Z" fill="white"/>
<path d="M526.75 926.804H516.806C515.986 926.804 515.321 926.139 515.321 925.319V914.029C515.321 913.209 515.986 912.544 516.806 912.544H526.75C527.57 912.544 528.235 913.209 528.235 914.029V925.319C528.235 926.139 527.57 926.804 526.75 926.804ZM518.221 923.903H525.34V915.439H518.221V923.903Z" fill="#9A9DB2"/>
<path d="M474.407 913.991H464.393V925.356H474.407V913.991Z" fill="white"/>
<path d="M474.369 926.804H464.425C463.605 926.804 462.94 926.139 462.94 925.319V914.029C462.94 913.209 463.605 912.544 464.425 912.544H474.369C475.19 912.544 475.854 913.209 475.854 914.029V925.319C475.854 926.139 475.19 926.804 474.369 926.804ZM465.84 923.903H472.959V915.439H465.84V923.903Z" fill="#9A9DB2"/>
<path d="M569.107 911.037H490.201V942.8H569.107V911.037Z" fill="#FEF1ED"/>
<path d="M569.07 944.248H490.239C489.419 944.248 488.754 943.583 488.754 942.763V911.075C488.754 910.255 489.419 909.59 490.239 909.59H569.07C569.89 909.59 570.555 910.255 570.555 911.075V942.763C570.555 943.583 569.89 944.248 569.07 944.248ZM491.649 941.347H567.654V912.485H491.649V941.347Z" fill="#9A9DB2"/>
<path d="M508.744 920.285H497.626V931.403H508.744V920.285Z" fill="white"/>
<path d="M525.374 920.199H516.169V931.65H525.374V920.199Z" fill="white"/>
<path d="M543.654 920.285H534.423V930.465H543.654V920.285Z" fill="white"/>
<path d="M561.125 920.285H550.945V930.465H561.125V920.285Z" fill="white"/>
<path d="M561.125 920.285H551.111V931.65H561.125V920.285Z" fill="white"/>
<path d="M561.088 933.097H551.143C550.323 933.097 549.658 932.432 549.658 931.612V920.322C549.658 919.502 550.323 918.837 551.143 918.837H561.088C561.908 918.837 562.573 919.502 562.573 920.322V931.612C562.573 932.432 561.908 933.097 561.088 933.097ZM552.558 930.197H559.678V921.732H552.558V930.197Z" fill="#9A9DB2"/>
<path d="M543.654 920.285H533.64V931.65H543.654V920.285Z" fill="white"/>
<path d="M543.616 933.097H533.677C532.857 933.097 532.192 932.432 532.192 931.612V920.322C532.192 919.502 532.857 918.837 533.677 918.837H543.622C544.442 918.837 545.107 919.502 545.107 920.322V931.612C545.101 932.432 544.437 933.097 543.616 933.097ZM535.087 930.197H542.206V921.732H535.087V930.197Z" fill="#9A9DB2"/>
<path d="M526.183 933.097H516.169C515.37 933.097 514.721 932.448 514.721 931.65V920.285C514.721 919.486 515.37 918.837 516.169 918.837H526.183C526.982 918.837 527.63 919.486 527.63 920.285V931.65C527.63 932.448 526.982 933.097 526.183 933.097ZM517.616 930.197H524.735V921.732H517.616V930.197Z" fill="#9A9DB2"/>
<path d="M508.712 933.097H498.693C497.894 933.097 497.245 932.448 497.245 931.65V920.285C497.245 919.486 497.894 918.837 498.693 918.837H508.707C509.506 918.837 510.154 919.486 510.154 920.285V931.65C510.16 932.448 509.511 933.097 508.712 933.097ZM500.146 930.197H507.265V921.732H500.146V930.197Z" fill="#9A9DB2"/>
<path d="M569.107 879.274H490.201V911.037H569.107V879.274Z" fill="#FEF1ED"/>
<path d="M569.07 912.485H490.239C489.419 912.485 488.754 911.82 488.754 911V879.312C488.754 878.492 489.419 877.827 490.239 877.827H569.07C569.89 877.827 570.555 878.492 570.555 879.312V911C570.555 911.82 569.89 912.485 569.07 912.485ZM491.649 909.59H567.654V880.727H491.649V909.59Z" fill="#9A9DB2"/>
<path d="M569.107 906.845H490.201V911.032H569.107V906.845Z" fill="white"/>
<path d="M569.07 912.485H490.239C489.419 912.485 488.754 911.82 488.754 911V906.883C488.754 906.062 489.419 905.398 490.239 905.398H569.07C569.89 905.398 570.555 906.062 570.555 906.883V911C570.555 911.82 569.89 912.485 569.07 912.485ZM491.649 909.59H567.654V908.298H491.649V909.59Z" fill="#9A9DB2"/>
<path d="M545.085 857.938H513.966V864.216H545.085V857.938Z" fill="#FEF1ED"/>
<path d="M545.568 866.623H513.741C512.942 866.623 512.293 865.974 512.293 865.175V857.938C512.293 857.14 512.942 856.491 513.741 856.491H545.568C546.367 856.491 547.015 857.14 547.015 857.938V865.175C547.021 865.974 546.372 866.623 545.568 866.623ZM515.188 863.723H544.12V859.391H515.188V863.723Z" fill="#9A9DB2"/>
<path d="M561.125 888.522H551.111V899.887H561.125V888.522Z" fill="white"/>
<path d="M543.654 889.396H534.423V899.394H543.654V889.396Z" fill="white"/>
<path d="M525.374 888.913H516.169V899.887H525.374V888.913Z" fill="white"/>
<path d="M507.876 888.522H498.73V899.388H507.876V888.522Z" fill="white"/>
<path d="M487.757 879.274H571.552L569.107 865.175H490.201L487.757 879.274Z" fill="#F27449"/>
<path d="M571.552 880.727H487.757C487.328 880.727 486.926 880.54 486.647 880.213C486.374 879.886 486.256 879.451 486.331 879.033L488.775 864.929C488.893 864.232 489.499 863.728 490.201 863.728H569.107C569.815 863.728 570.415 864.237 570.533 864.929L572.978 879.033C573.053 879.457 572.935 879.886 572.656 880.213C572.383 880.534 571.981 880.727 571.552 880.727ZM489.483 877.827H569.831L567.89 866.623H491.424L489.483 877.827Z" fill="#9A9DB2"/>
<path d="M561.125 901.334H551.111C550.312 901.334 549.663 900.686 549.663 899.887V888.522C549.663 887.723 550.312 887.074 551.111 887.074H561.125C561.923 887.074 562.572 887.723 562.572 888.522V899.887C562.572 900.686 561.929 901.334 561.125 901.334ZM552.558 898.439H559.677V889.975H552.558V898.439Z" fill="#9A9DB2"/>
<path d="M543.654 901.334H533.64C532.841 901.334 532.192 900.686 532.192 899.887V888.522C532.192 887.723 532.841 887.074 533.64 887.074H543.654C544.453 887.074 545.101 887.723 545.101 888.522V899.887C545.101 900.686 544.453 901.334 543.654 901.334ZM535.087 898.439H542.206V889.975H535.087V898.439Z" fill="#9A9DB2"/>
<path d="M526.183 901.334H516.169C515.37 901.334 514.721 900.686 514.721 899.887V888.522C514.721 887.723 515.37 887.074 516.169 887.074H526.183C526.982 887.074 527.63 887.723 527.63 888.522V899.887C527.63 900.686 526.982 901.334 526.183 901.334ZM517.616 898.439H524.735V889.975H517.616V898.439Z" fill="#9A9DB2"/>
<path d="M508.707 888.522H498.693V899.887H508.707V888.522Z" fill="white"/>
<path d="M508.675 901.334H498.73C497.91 901.334 497.245 900.669 497.245 899.849V888.559C497.245 887.739 497.91 887.074 498.73 887.074H508.675C509.495 887.074 510.16 887.739 510.16 888.559V899.849C510.16 900.669 509.495 901.334 508.675 901.334ZM500.146 898.439H507.265V889.975H500.146V898.439Z" fill="#9A9DB2"/>
<rect x="452.333" y="947.491" width="171.979" height="4" rx="2" fill="#9A9DB2"/>
<rect x="629.604" y="947.491" width="7.9375" height="4" rx="2" fill="#9A9DB2"/>
<rect x="410" y="947.491" width="7.9375" height="4" rx="2" fill="#9A9DB2"/>
<rect x="645.479" y="947.491" width="18.5208" height="4" rx="2" fill="#9A9DB2"/>
<rect x="425.875" y="947.491" width="18.5208" height="4" rx="2" fill="#9A9DB2"/>
<g opacity="0.6">
<rect x="436.459" y="959.491" width="5.29167" height="4" rx="2" fill="#9A9DB2"/>
<rect x="449.688" y="959.491" width="18.5208" height="4" rx="2" fill="#9A9DB2"/>
<rect x="600.501" y="959.491" width="37.0417" height="4" rx="2" fill="#9A9DB2"/>
<rect x="476.146" y="959.491" width="119.062" height="4" rx="2" fill="#9A9DB2"/>
</g>
<g opacity="0.2">
<rect x="578.672" y="971.491" width="7.9375" height="4" rx="2" fill="#9A9DB2"/>
<rect x="487.391" y="971.491" width="13.2292" height="4" rx="2" fill="#9A9DB2"/>
<rect x="505.912" y="971.491" width="67.4688" height="4" rx="2" fill="#9A9DB2"/>
</g>
<rect x="53.5796" y="144.031" width="171.979" height="4" rx="2" fill="#9A9DB2"/>
<rect x="230.85" y="144.031" width="7.9375" height="4" rx="2" fill="#9A9DB2"/>
<rect x="11.2461" y="144.031" width="7.9375" height="4" rx="2" fill="#9A9DB2"/>
<rect x="246.725" y="144.031" width="18.5208" height="4" rx="2" fill="#9A9DB2"/>
<rect x="27.1211" y="144.031" width="18.5208" height="4" rx="2" fill="#9A9DB2"/>
<g opacity="0.6">
<rect x="37.7046" y="156.031" width="5.29167" height="4" rx="2" fill="#9A9DB2"/>
<rect x="50.9336" y="156.031" width="18.5208" height="4" rx="2" fill="#9A9DB2"/>
<rect x="201.747" y="156.031" width="37.0417" height="4" rx="2" fill="#9A9DB2"/>
<rect x="77.3921" y="156.031" width="119.062" height="4" rx="2" fill="#9A9DB2"/>
</g>
<g opacity="0.2">
<rect x="179.918" y="168.031" width="7.9375" height="4" rx="2" fill="#9A9DB2"/>
<rect x="88.6367" y="168.031" width="13.2292" height="4" rx="2" fill="#9A9DB2"/>
<rect x="107.158" y="168.031" width="67.4688" height="4" rx="2" fill="#9A9DB2"/>
</g>
<g opacity="0.2">
<path d="M69.4971 70.1119C69.4971 53.8856 82.6774 40.6886 98.8833 40.6886C115.089 40.6886 128.27 53.8856 128.27 70.1119V85.9404C128.27 97.7578 121.22 108.395 110.306 113.034C108.868 113.644 107.221 112.974 106.612 111.535C106.003 110.095 106.672 108.445 108.11 107.835C116.936 104.076 122.638 95.4883 122.638 85.9404V70.1119C122.638 57.0049 111.984 46.3373 98.8933 46.3373C85.8028 46.3373 75.1487 57.0049 75.1487 70.1119V85.9404C75.1487 98.0977 84.305 108.135 96.0675 109.545V97.6917C96.0675 96.1321 97.3256 94.8724 98.8833 94.8724C100.441 94.8724 101.699 96.1321 101.699 97.6917V124.672C101.699 126.231 100.441 127.491 98.8833 127.491C97.3256 127.491 96.0675 126.231 96.0675 124.672V115.224C81.1797 113.794 69.4971 101.207 69.4971 85.9404V70.1119Z" fill="#9A9DB2"/>
<rect x="95.7186" y="84.0898" width="5.42515" height="7.23353" rx="2.71257" fill="#9A9DB2"/>
</g>
<rect x="121.94" y="20.7964" width="53.3473" height="91.3234" rx="26.6737" fill="white"/>
<path d="M119.228 46.4829C119.228 30.3228 132.408 17.1797 148.614 17.1797C164.82 17.1797 178 30.3228 178 46.4829V86.1101C178 97.8792 170.95 108.473 160.037 113.093C158.599 113.701 156.951 113.034 156.342 111.6C155.733 110.166 156.402 108.523 157.84 107.916C166.667 104.172 172.368 95.619 172.368 86.1101V46.4829C172.368 33.4294 161.714 22.8053 148.624 22.8053C135.533 22.8053 124.879 33.4294 124.879 46.4829V86.1101C124.879 98.2177 134.035 108.214 145.798 109.618V88.8084C145.798 87.2552 147.056 86.0006 148.614 86.0006C150.171 86.0006 151.43 87.2552 151.43 88.8084V124.683C151.43 126.236 150.171 127.491 148.614 127.491C147.056 127.491 145.798 126.236 145.798 124.683V115.274C130.91 113.85 119.228 101.314 119.228 86.1101V46.4829Z" fill="#BABCC4"/>
<rect x="145.449" y="68.7186" width="5.42515" height="11.7545" rx="2.71257" fill="#BABCC4"/>
<rect x="29.7126" y="3.61676" width="53.3473" height="108.503" rx="26.6737" fill="white"/>
<path d="M27 29.4233C27 13.197 40.1804 0 56.3862 0C72.5921 0 85.7725 13.197 85.7725 29.4233V85.9405C85.7725 97.7578 78.723 108.395 67.8092 113.034C66.3714 113.644 64.7238 112.974 64.1147 111.535C63.5056 110.095 64.1746 108.445 65.6125 107.835C74.4393 104.076 80.1408 95.4883 80.1408 85.9405V29.4233C80.1408 16.3163 69.4867 5.64872 56.3962 5.64872C43.3057 5.64872 32.6516 16.3163 32.6516 29.4233V85.9405C32.6516 98.0977 41.8079 108.135 53.5704 109.545V88.6498C53.5704 87.0902 54.8285 85.8305 56.3862 85.8305C57.9439 85.8305 59.202 87.0902 59.202 88.6498V124.672C59.202 126.231 57.9439 127.491 56.3862 127.491C54.8285 127.491 53.5704 126.231 53.5704 124.672V115.224C38.6826 113.794 27 101.207 27 85.9405V29.4233Z" fill="#999BA8"/>
<rect x="53.2216" y="68.7186" width="5.42515" height="11.7545" rx="2.71257" fill="#999BA8"/>
<path d="M152.039 61.7538C152.039 56.2309 156.516 51.7538 162.039 51.7538H231.62C237.143 51.7538 241.62 56.2309 241.62 61.7538V125.619H162.039C156.516 125.619 152.039 121.142 152.039 115.619V61.7538Z" fill="#FEF1ED"/>
<path d="M152.039 111.259C152.039 105.736 156.516 101.259 162.039 101.259H231.62C237.143 101.259 241.62 105.736 241.62 111.259V125.619H162.039C156.516 125.619 152.039 121.142 152.039 115.619V111.259Z" fill="#F27449"/>
<path d="M154.903 59.3963C154.903 55.5304 158.037 52.3964 161.903 52.3964H231.924C235.79 52.3964 238.924 55.5304 238.924 59.3964V122.981H161.903C158.037 122.981 154.903 119.847 154.903 115.981V59.3963Z" stroke="#9A9DB2" stroke-width="6" stroke-linejoin="round"/>
<line x1="151.903" y1="101.484" x2="241.924" y2="101.484" stroke="#9A9DB2" stroke-width="6"/>
<path d="M240.893 78.5965H256.247C270.054 78.5965 281.247 89.7894 281.247 103.596V115.981C281.247 119.847 278.113 122.981 274.247 122.981H240.893V78.5965Z" fill="white" stroke="#9A9DB2" stroke-width="6" stroke-linejoin="round"/>
<rect x="171.026" y="114.874" width="22.8874" height="22.8874" rx="11.4437" fill="#FEF1ED" stroke="#9A9DB2" stroke-width="6"/>
<rect x="248.283" y="114.874" width="22.8874" height="22.8874" rx="11.4437" fill="#FEF1ED" stroke="#9A9DB2" stroke-width="6"/>
<path d="M259.032 78.617C270.382 79.0909 279.625 87.7194 281.055 98.7967H266.032C262.166 98.7967 259.032 95.6627 259.032 91.7967V78.617Z" fill="#FFF9F8" stroke="#9A9DB2" stroke-width="6"/>
<rect x="145.185" y="63.5042" width="35.6054" height="4.03079" rx="2.0154" fill="#9A9DB2"/>
<rect x="121" y="71.5657" width="42.3233" height="4.03079" rx="2.0154" fill="#9A9DB2"/>
<rect x="135.616" y="79.6237" width="34.3656" height="4.03079" rx="2.0154" transform="rotate(0.0218278 135.616 79.6237)" fill="#9A9DB2"/>
</svg>
