<svg width="1440" height="120" viewBox="0 0 1440 120" fill="none" xmlns="http://www.w3.org/2000/svg">
<g clip-path="url(#clip0_1108_87288)">
<rect width="1440" height="120" fill="#FFF9F8"/>
<path opacity="0.3" d="M46 73C42.6984 73 40 70.3122 40 67C40 63.6878 42.6878 61 46 61C49.3016 61 52 63.6878 52 67C51.9894 70.3016 49.3016 73 46 73ZM46 63.1164C43.8624 63.1164 42.1164 64.8519 42.1164 67C42.1164 69.1376 43.8624 70.8836 46 70.8836C48.1376 70.8836 49.8836 69.1376 49.8836 67C49.873 64.8624 48.1376 63.1164 46 63.1164Z" fill="#F27449"/>
<path opacity="0.4" d="M122 33L121.062 29.4378C120.231 26.2651 117.708 23.7668 114.489 22.9214L111 22L114.489 21.0786C117.708 20.2332 120.231 17.7349 121.062 14.5622L122 11L122.938 14.5622C123.769 17.7349 126.292 20.2332 129.511 21.0786L133 22L129.511 22.9214C126.292 23.7668 123.769 26.2651 122.938 29.4378L122 33ZM117.351 22C119.332 23.0354 120.946 24.6408 121.99 26.5881C123.034 24.6408 124.658 23.0449 126.63 22C124.649 20.9646 123.034 19.3592 121.99 17.4119C120.956 19.3592 119.332 20.9646 117.351 22Z" fill="#F27449"/>
<path opacity="0.4" d="M190 109L189.062 105.438C188.231 102.265 185.708 99.7668 182.489 98.9214L179 98L182.489 97.0786C185.708 96.2332 188.231 93.7349 189.062 90.5622L190 87L190.938 90.5622C191.769 93.7349 194.292 96.2332 197.511 97.0786L201 98L197.511 98.9214C194.292 99.7668 191.769 102.265 190.938 105.438L190 109ZM185.351 98C187.332 99.0354 188.946 100.641 189.99 102.588C191.034 100.641 192.658 99.0449 194.63 98C192.649 96.9646 191.034 95.3592 189.99 93.4119C188.956 95.3592 187.332 96.9646 185.351 98Z" fill="#F27449"/>
<path d="M315.304 71.0299L306.635 66.1871C308.648 64.9706 311.026 62.7198 309.981 60.2786C309.29 58.6661 307.4 56.8336 304.864 56.5988C303.306 56.4598 301.107 56.8859 298.797 59.355C299.698 56.0986 298.904 53.9893 297.963 52.7437C296.434 50.7074 293.874 50.054 292.147 50.3163C289.237 50.7506 288.883 54.5145 288.879 56.2678L280.269 51.4584C279.817 51.2055 279.243 51.3692 278.989 51.8239L274.533 59.8017C274.279 60.2564 274.44 60.8304 274.893 61.0833L277.574 62.5814L261.962 90.5296C261.708 90.9842 261.869 91.5583 262.322 91.8112L290.345 107.466C290.798 107.718 291.371 107.555 291.625 107.1L299.297 93.3662L302.637 87.3871L307.237 79.1519L309.919 80.65C310.372 80.9029 310.945 80.7392 311.199 80.2846L315.656 72.3067C315.918 71.8568 315.757 71.2828 315.304 71.0299ZM304.687 58.4807C306.381 58.6389 307.759 59.8819 308.248 61.0329C308.896 62.5424 306.058 64.4126 305.011 64.9422C304.903 64.9945 304.83 65.066 304.752 65.1461L299.089 61.9827C301.306 58.8767 303.347 58.3514 304.687 58.4807ZM292.418 52.1784C293.655 51.9912 295.444 52.5184 296.458 53.8727C297.266 54.9543 297.881 56.9634 296.412 60.476L290.749 57.3127C290.776 57.204 290.79 57.0991 290.787 56.9847C290.697 55.8206 290.802 52.4236 292.418 52.1784ZM271.723 94.9019L264.062 90.6222L270.814 78.5353L278.475 82.8151L271.723 94.9019ZM271.76 76.9026L274.18 72.5705L281.798 76.8264L279.378 81.1585L271.76 76.9026ZM282.735 75.189L275.074 70.9092L279.214 63.4975L286.876 67.7773L282.735 75.189ZM287.796 66.1302L276.633 59.8943L280.169 53.5635L291.332 59.7994L287.796 66.1302ZM280.53 99.6189L273.449 95.6636L292.886 60.8699L299.966 64.8253L280.53 99.6189ZM290.454 105.365L282.092 100.694L288.844 88.6073L297.206 93.2784L290.454 105.365ZM298.126 91.6313L289.969 87.0748L292.389 82.7428L300.546 87.2993L298.126 91.6313ZM301.466 85.6522L293.104 80.9812L297.244 73.5695L305.606 78.2406L301.466 85.6522ZM310.028 78.5497L298.156 71.9177L301.692 65.5869L313.556 72.2142L310.019 78.545L310.028 78.5497Z" fill="#F27449"/>
<path d="M103.635 142.634C100.438 141.011 97.2344 139.108 95.1195 137.847C94.1525 137.275 93.3927 136.816 92.998 136.616C88.3932 134.213 87.9327 129.123 87.301 122.087C87.1398 120.269 86.9556 118.204 86.6793 116.026C86.2812 112.784 83.2387 109.406 81.9559 108.103C81.4034 107.546 81.183 106.806 81.3277 106.016C81.821 103.3 86.6197 100.267 89.1852 99.0432L100.279 77.186C100.414 76.9203 100.654 76.7243 100.947 76.6529C105.489 75.4948 110.656 74.4257 114.465 76.3589C116.129 77.2036 117.369 78.5582 118.152 80.3899C118.26 80.6324 118.264 80.903 118.172 81.1496L105.411 115.876C105.93 120.867 107.447 123.502 109.368 126.841C111.2 130.028 113.479 133.996 115.558 141.163C116.094 143.025 115.877 144.365 114.904 145.159C113.229 146.517 109.753 145.739 103.635 142.634ZM101.95 78.5556L90.9021 100.322C90.7969 100.529 90.6193 100.7 90.4055 100.795C87.1164 102.272 83.6432 105.056 83.3998 106.416C83.3669 106.578 83.4064 106.615 83.4492 106.661C84.8865 108.116 88.2875 111.912 88.7711 115.8C89.0441 118.017 89.2382 120.096 89.3994 121.929C90.0114 128.776 90.3864 132.911 93.965 134.776C94.4024 135.006 95.1524 135.452 96.1819 136.064C98.2803 137.308 101.444 139.191 104.576 140.781C111.825 144.46 113.335 143.719 113.562 143.532C113.759 143.372 113.854 142.809 113.539 141.703C111.535 134.778 109.417 131.095 107.549 127.849C105.559 124.386 103.839 121.402 103.299 115.815C103.286 115.661 103.306 115.509 103.355 115.362L116.044 80.8111C115.455 79.624 114.629 78.7731 113.511 78.2055C110.274 76.5628 105.045 77.7713 101.95 78.5556Z" fill="#F27449"/>
<path d="M77.3448 127.391L74.1938 125.792C73.7004 125.542 73.4767 124.956 73.6905 124.453L81.3998 106.362C81.5774 105.947 82.0017 105.698 82.4589 105.743C82.9161 105.787 83.2877 106.115 83.393 106.559C83.4028 106.605 83.416 106.628 83.4489 106.661C84.3403 107.561 86.0276 109.404 87.271 111.6C87.4551 111.921 87.4519 112.319 87.2644 112.639L78.7229 127.007C78.4368 127.473 77.8381 127.642 77.3448 127.391ZM76.006 124.389L77.4006 125.097L85.1363 112.089C84.3305 110.792 83.3832 109.643 82.6431 108.835L76.006 124.389Z" fill="#F27449"/>
<path d="M93.7539 101.827C93.2342 101.563 93.0236 100.934 93.2835 100.422L102.838 81.5978C103.098 81.0859 103.729 80.8849 104.249 81.1486C104.769 81.4124 104.979 82.0408 104.719 82.5527L95.1682 101.371C94.8985 101.886 94.267 102.087 93.7539 101.827Z" fill="#F27449"/>
<path d="M112.784 92.1714L107.581 89.5304C107.061 89.2667 106.851 88.6383 107.111 88.1263C107.37 87.6144 108.002 87.4134 108.522 87.6771L113.725 90.3181C114.245 90.5819 114.455 91.2103 114.195 91.7222C113.936 92.2341 113.304 92.4352 112.784 92.1714Z" fill="#F27449"/>
<path d="M111.337 96.4245L106.134 93.7835C105.614 93.5197 105.404 92.8913 105.663 92.3794C105.923 91.8674 106.555 91.6664 107.074 91.9302L112.278 94.5712C112.797 94.8349 113.008 95.4633 112.748 95.9753C112.488 96.4872 111.857 96.6882 111.337 96.4245Z" fill="#F27449"/>
<path d="M109.821 100.634L104.617 97.9932C104.098 97.7294 103.887 97.101 104.147 96.589C104.407 96.0771 105.038 95.8761 105.558 96.1399L110.762 98.7808C111.281 99.0446 111.492 99.673 111.232 100.185C110.966 100.694 110.334 100.895 109.821 100.634Z" fill="#F27449"/>
<path d="M108.164 104.976L102.96 102.335C102.44 102.071 102.23 101.443 102.49 100.931C102.75 100.419 103.381 100.218 103.901 100.481L109.104 103.122C109.624 103.386 109.834 104.015 109.575 104.527C109.315 105.038 108.683 105.24 108.164 104.976Z" fill="#F27449"/>
<path d="M103.635 142.634C100.438 141.011 97.2345 139.108 95.1196 137.847C94.1592 137.278 93.3961 136.826 93.0047 136.619C92.8666 136.549 92.7317 136.472 92.6067 136.393C92.2153 136.153 92.0245 135.698 92.1298 135.262C92.4619 133.874 92.9487 132.54 93.5802 131.296C95.9877 126.553 100.326 123.172 105.792 121.774C106.296 121.647 106.825 121.907 107.036 122.389C107.687 123.909 108.463 125.265 109.368 126.841C111.2 130.028 113.486 134 115.555 141.17C116.091 143.031 115.874 144.372 114.9 145.165C113.23 146.517 109.753 145.739 103.635 142.634ZM94.3795 135.002C94.8235 135.252 95.4254 135.615 96.1885 136.067C98.287 137.312 101.451 139.195 104.582 140.784C111.832 144.463 113.341 143.722 113.568 143.536C113.766 143.375 113.861 142.812 113.545 141.706C111.542 134.781 109.427 131.092 107.552 127.842C106.815 126.556 106.105 125.331 105.487 124.023C101.01 125.394 97.4744 128.285 95.4648 132.245C95.0142 133.116 94.6525 134.041 94.3795 135.002Z" fill="#F27449"/>
<path d="M211.122 68.911L185.453 74.3293C185.257 74.3707 185.047 74.3502 184.86 74.2674C177.602 71.1376 172.275 64.593 170.625 56.776C167.844 43.6006 176.115 30.6606 189.065 27.9272C202.014 25.1937 214.809 33.687 217.59 46.8624C219.24 54.6795 217.013 62.8187 211.641 68.6217C211.501 68.7662 211.318 68.8696 211.122 68.911ZM185.35 72.3007L210.403 67.0124C215.186 61.7007 217.147 54.3443 215.654 47.2711C213.103 35.1839 201.36 27.3893 189.48 29.8969C177.6 32.4046 170.01 44.2801 172.561 56.3673C174.054 63.4405 178.82 69.3698 185.35 72.3007Z" fill="#F27449"/>
<path d="M198.295 29.7844C198.173 29.8101 198.046 29.8083 197.914 29.7858C195.118 29.2682 192.283 29.3053 189.48 29.8969C186.678 30.4885 184.063 31.6015 181.722 33.2037C181.45 33.3905 181.104 33.4275 180.801 33.2973C180.498 33.1671 180.271 32.8983 180.202 32.5677L178.255 23.3457C178.14 22.8016 178.48 22.2693 179.015 22.1564L195.931 18.5857C196.466 18.4728 196.992 18.8221 197.107 19.3662L199.054 28.5883C199.122 28.912 199.025 29.2562 198.799 29.491C198.661 29.6424 198.485 29.7444 198.295 29.7844ZM189.065 27.9271C191.637 27.3842 194.237 27.2742 196.82 27.5851L195.379 20.7598L180.392 23.9233L181.833 30.7486C184.061 29.4149 186.492 28.4701 189.065 27.9271Z" fill="#F27449"/>
<path d="M193.247 21.2099L182.531 23.4718C181.997 23.5847 181.47 23.2353 181.356 22.6912L179.368 13.2763C179.253 12.7322 179.594 12.2 180.128 12.0871L190.844 9.82518C191.379 9.7123 191.905 10.0616 192.02 10.6057L192.473 12.7546C192.559 13.1609 192.391 13.5705 192.051 13.8006C191.587 14.1144 191.349 14.6969 191.467 15.2548C191.586 15.8195 192.024 16.2523 192.589 16.3489C192.993 16.4218 193.312 16.7285 193.398 17.1349L194.009 20.0275C194.115 20.5662 193.775 21.0984 193.247 21.2099ZM183.085 21.3046L191.865 19.4513L191.587 18.1359C190.552 17.7212 189.779 16.8053 189.539 15.6689C189.298 14.5256 189.635 13.3754 190.414 12.5778L190.293 12.0062L181.514 13.8594L183.085 21.3046Z" fill="#F27449"/>
<path d="M171.6 56.4695C171.343 56.5238 171.064 56.4747 170.831 56.3081C170.381 55.9858 170.27 55.3617 170.584 54.9069C170.644 54.8223 172.026 52.8257 174.285 51.1689C177.389 48.8879 180.654 48.3427 183.718 49.5951C189.437 51.9346 193.277 49.2247 195.977 46.6046L196.182 46.403C198.347 44.2986 201.628 41.1168 206.212 43.3363C210.005 45.1614 215.98 44.3247 216.042 44.3187C216.584 44.2403 217.089 44.6229 217.17 45.1741C217.251 45.7254 216.878 46.2358 216.336 46.3142C216.069 46.3562 209.701 47.2399 205.373 45.1607C202.255 43.6535 200.163 45.3325 197.552 47.8692L197.34 48.0722C196.09 49.2856 194.358 50.7951 192.041 51.7087C189.175 52.8387 186.131 52.7547 182.989 51.4683C177.109 49.0693 172.259 56.0067 172.21 56.0746C172.055 56.2799 171.837 56.4195 171.6 56.4695Z" fill="#F27449"/>
<path d="M183.649 60.4224C183.114 60.5353 182.588 60.186 182.473 59.6419L182.068 57.7203C181.953 57.1762 182.293 56.644 182.828 56.5311C183.363 56.4182 183.889 56.7676 184.004 57.3117L184.409 59.2332C184.524 59.7773 184.184 60.3096 183.649 60.4224Z" fill="#F27449"/>
<path d="M188.582 64.23C188.047 64.3429 187.521 63.9936 187.406 63.4495L187.001 61.5279C186.886 60.9838 187.226 60.4516 187.761 60.3387C188.296 60.2259 188.822 60.5752 188.937 61.1193L189.342 63.0408C189.457 63.5849 189.117 64.1172 188.582 64.23Z" fill="#F27449"/>
<path d="M193.357 57.3374C192.822 57.4503 192.295 57.101 192.181 56.5569L191.775 54.6353C191.66 54.0912 192 53.559 192.535 53.4461C193.07 53.3332 193.596 53.6826 193.711 54.2266L194.117 56.1482C194.231 56.6923 193.891 57.2245 193.357 57.3374Z" fill="#F27449"/>
<path d="M199.771 66.6236C199.237 66.7364 198.71 66.3871 198.595 65.843L198.19 63.9215C198.075 63.3774 198.415 62.8451 198.95 62.7322C199.485 62.6194 200.011 62.9687 200.126 63.5128L200.531 65.4344C200.646 65.9785 200.306 66.5107 199.771 66.6236Z" fill="#F27449"/>
<path d="M194.789 62.9198C194.254 63.0327 193.728 62.6833 193.613 62.1392L193.208 60.2177C193.093 59.6736 193.433 59.1413 193.968 59.0285C194.503 58.9156 195.029 59.2649 195.144 59.809L195.549 61.7306C195.664 62.2747 195.324 62.8069 194.789 62.9198Z" fill="#F27449"/>
<path d="M201.443 54.9829C200.908 55.0958 200.382 54.7465 200.267 54.2024L199.862 52.2808C199.747 51.7367 200.087 51.2045 200.622 51.0916C201.157 50.9787 201.683 51.328 201.798 51.8721L202.203 53.7937C202.318 54.3378 201.978 54.87 201.443 54.9829Z" fill="#F27449"/>
<path d="M203.834 60.0106C203.299 60.1235 202.773 59.7742 202.658 59.2301L202.253 57.3085C202.138 56.7644 202.478 56.2322 203.013 56.1193C203.548 56.0064 204.074 56.3557 204.189 56.8998L204.594 58.8214C204.709 59.3655 204.369 59.8977 203.834 60.0106Z" fill="#F27449"/>
<path d="M209.559 52.4929C209.024 52.6058 208.498 52.2565 208.383 51.7124L207.979 49.7977C207.864 49.2536 208.204 48.7214 208.739 48.6085C209.274 48.4956 209.8 48.845 209.915 49.3891L210.319 51.3037C210.434 51.8478 210.093 52.3801 209.559 52.4929Z" fill="#F27449"/>
<path d="M210.582 60.6582C210.048 60.7711 209.521 60.4217 209.406 59.8776L209.001 57.9561C208.886 57.412 209.226 56.8797 209.761 56.7668C210.296 56.654 210.822 57.0033 210.937 57.5474L211.342 59.4689C211.456 60.0062 211.117 60.5453 210.582 60.6582Z" fill="#F27449"/>
<path d="M183.82 66.6597C183.285 66.7726 182.759 66.4233 182.644 65.8792L182.239 63.9576C182.124 63.4135 182.464 62.8813 182.999 62.7684C183.533 62.6555 184.06 63.0048 184.175 63.5489L184.58 65.4705C184.695 66.0146 184.355 66.5468 183.82 66.6597Z" fill="#F27449"/>
<path d="M44.5813 38.8439L-10.9872 61.4386C-11.2546 61.5473 -11.5533 61.5415 -11.8103 61.414C-12.0647 61.2929 -12.2566 61.064 -12.331 60.7873L-18.7732 37.3939L-21.6741 26.8582C-21.81 26.3745 -21.5533 25.8659 -21.0773 25.6724L26.8425 6.18768C27.3185 5.99413 27.8508 6.18194 28.0975 6.62058L45.054 37.3717C45.0906 37.4242 45.1141 37.482 45.1376 37.5398C45.3466 38.0537 45.0964 38.6345 44.5813 38.8439ZM-10.6909 59.1772L42.7844 37.4336L26.7614 8.36158L-19.5022 27.1728L-16.8352 36.8529L-10.6909 59.1772Z" fill="#F27449"/>
<path d="M15.1608 13.0784L-7.9025 22.4561C-8.41763 22.6656 -9.00211 22.4242 -9.20845 21.9167L-11.2928 16.7906C-12.6484 13.4567 -10.9989 9.62702 -7.61473 8.25097L5.04174 3.10473C8.42592 1.72868 12.2799 3.32062 13.6354 6.65452L15.7198 11.7806C15.9261 12.2881 15.676 12.8689 15.1608 13.0784ZM-7.72359 20.2425L13.4814 11.6203L11.7706 7.4128C10.8276 5.09384 8.14269 3.98477 5.78875 4.9419L-6.86772 10.0881C-9.22165 11.0453 -10.3708 13.7133 -9.42789 16.0323L-7.71707 20.2398L-7.72359 20.2425Z" fill="#F27449"/>
<path d="M26.3593 23.7062L23.8098 24.7428C23.2946 24.9523 22.7102 24.7109 22.5038 24.2034L20.8687 20.1822C20.6624 19.6747 20.9126 19.0939 21.4277 18.8844L23.9772 17.8478C24.4924 17.6383 25.0768 17.8797 25.2832 18.3872L26.9183 22.4084C27.1181 22.9186 26.8679 23.4994 26.3593 23.7062ZM23.9913 22.5356L24.676 22.2572L23.7879 20.0731L23.1032 20.3515L23.9913 22.5356Z" fill="#F27449"/>
<path d="M27.5468 40.4555L2.33815 50.7055C1.82302 50.915 1.23854 50.6736 1.0322 50.1661C0.825855 49.6586 1.07601 49.0778 1.59114 48.8683L26.7997 38.6183C27.3149 38.4088 27.8994 38.6503 28.1057 39.1577C28.3055 39.6679 28.0554 40.2487 27.5468 40.4555Z" fill="#F27449"/>
<path d="M33.327 18.5298L25.5414 21.6955C25.0263 21.9049 24.4418 21.6635 24.2354 21.156C24.0291 20.6486 24.2793 20.0678 24.7944 19.8583L32.5865 16.69C33.1016 16.4805 33.6861 16.7219 33.8924 17.2294C34.0923 17.7395 33.8421 18.3203 33.327 18.5298Z" fill="#F27449"/>
<path d="M22.9858 22.7348L-7.06761 34.9548C-7.58274 35.1642 -8.16722 34.9228 -8.37356 34.4153C-8.57991 33.9079 -8.32975 33.3271 -7.81463 33.1176L22.2388 20.8976C22.7539 20.6881 23.3384 20.9296 23.5447 21.437C23.7511 21.9445 23.5009 22.5253 22.9858 22.7348Z" fill="#F27449"/>
</g>
<defs>
<clipPath id="clip0_1108_87288">
<rect width="1440" height="120" fill="white"/>
</clipPath>
</defs>
</svg>
