<svg width="1440" height="628" viewBox="0 0 1440 628" fill="none" xmlns="http://www.w3.org/2000/svg">
<g clip-path="url(#clip0_1106_80011)">
<rect width="1440" height="628" fill="#FFF9F8"/>
<g opacity="0.3">
<rect x="410" y="525" width="154" height="4" rx="2" fill="#F27449"/>
<circle cx="477" cy="535" r="2" fill="#F27449"/>
<circle cx="485" cy="535" r="2" fill="#F27449"/>
<circle cx="493" cy="535" r="2" fill="#F27449"/>
<circle cx="501" cy="535" r="2" fill="#F27449"/>
<circle cx="509" cy="535" r="2" fill="#F27449"/>
<circle cx="517" cy="535" r="2" fill="#F27449"/>
<circle cx="525" cy="535" r="2" fill="#F27449"/>
<circle cx="533" cy="535" r="2" fill="#F27449"/>
<circle cx="541" cy="535" r="2" fill="#F27449"/>
<circle cx="549" cy="535" r="2" fill="#F27449"/>
<circle cx="557" cy="535" r="2" fill="#F27449"/>
<circle cx="565" cy="535" r="2" fill="#F27449"/>
<circle cx="573" cy="535" r="2" fill="#F27449"/>
<circle cx="581" cy="535" r="2" fill="#F27449"/>
<circle cx="589" cy="535" r="2" fill="#F27449"/>
<circle cx="597" cy="535" r="2" fill="#F27449"/>
</g>
<g opacity="0.1">
<rect x="-59" y="577" width="258" height="4" rx="2" fill="#F27449"/>
<circle cx="88" cy="587" r="2" fill="#F27449"/>
<circle cx="96" cy="587" r="2" fill="#F27449"/>
<circle cx="104" cy="587" r="2" fill="#F27449"/>
<circle cx="112" cy="587" r="2" fill="#F27449"/>
<circle cx="120" cy="587" r="2" fill="#F27449"/>
<circle cx="128" cy="587" r="2" fill="#F27449"/>
<circle cx="136" cy="587" r="2" fill="#F27449"/>
<circle cx="144" cy="587" r="2" fill="#F27449"/>
<circle cx="152" cy="587" r="2" fill="#F27449"/>
<circle cx="160" cy="587" r="2" fill="#F27449"/>
<circle cx="168" cy="587" r="2" fill="#F27449"/>
<circle cx="176" cy="587" r="2" fill="#F27449"/>
<circle cx="184" cy="587" r="2" fill="#F27449"/>
<circle cx="192" cy="587" r="2" fill="#F27449"/>
<circle cx="200" cy="587" r="2" fill="#F27449"/>
<circle cx="208" cy="587" r="2" fill="#F27449"/>
<circle cx="216" cy="587" r="2" fill="#F27449"/>
<circle cx="224" cy="587" r="2" fill="#F27449"/>
<circle cx="232" cy="587" r="2" fill="#F27449"/>
<circle cx="240" cy="587" r="2" fill="#F27449"/>
</g>
<g opacity="0.1">
<rect x="822" y="567" width="104" height="4" rx="2" fill="#F27449"/>
<circle cx="785" cy="577" r="2" fill="#F27449"/>
<circle cx="793" cy="577" r="2" fill="#F27449"/>
<circle cx="801" cy="577" r="2" fill="#F27449"/>
<circle cx="809" cy="577" r="2" fill="#F27449"/>
<circle cx="817" cy="577" r="2" fill="#F27449"/>
<circle cx="825" cy="577" r="2" fill="#F27449"/>
<circle cx="833" cy="577" r="2" fill="#F27449"/>
<circle cx="841" cy="577" r="2" fill="#F27449"/>
<circle cx="849" cy="577" r="2" fill="#F27449"/>
<circle cx="857" cy="577" r="2" fill="#F27449"/>
<circle cx="865" cy="577" r="2" fill="#F27449"/>
<circle cx="873" cy="577" r="2" fill="#F27449"/>
<circle cx="881" cy="577" r="2" fill="#F27449"/>
<circle cx="889" cy="577" r="2" fill="#F27449"/>
<circle cx="897" cy="577" r="2" fill="#F27449"/>
<circle cx="905" cy="577" r="2" fill="#F27449"/>
<circle cx="913" cy="577" r="2" fill="#F27449"/>
<circle cx="921" cy="577" r="2" fill="#F27449"/>
<circle cx="929" cy="577" r="2" fill="#F27449"/>
<circle cx="937" cy="577" r="2" fill="#F27449"/>
</g>
<g opacity="0.3">
<rect x="1218" y="544.505" width="258" height="4" rx="2" fill="#F27449"/>
<circle cx="1365" cy="554.505" r="2" fill="#F27449"/>
<circle cx="1373" cy="554.505" r="2" fill="#F27449"/>
<circle cx="1381" cy="554.505" r="2" fill="#F27449"/>
<circle cx="1389" cy="554.505" r="2" fill="#F27449"/>
<circle cx="1397" cy="554.505" r="2" fill="#F27449"/>
<circle cx="1405" cy="554.505" r="2" fill="#F27449"/>
<circle cx="1413" cy="554.505" r="2" fill="#F27449"/>
<circle cx="1421" cy="554.505" r="2" fill="#F27449"/>
<circle cx="1429" cy="554.505" r="2" fill="#F27449"/>
<circle cx="1437" cy="554.505" r="2" fill="#F27449"/>
</g>
<path opacity="0.4" d="M1189 588L1188.06 584.438C1187.23 581.265 1184.71 578.767 1181.49 577.921L1178 577L1181.49 576.079C1184.71 575.233 1187.23 572.735 1188.06 569.562L1189 566L1189.94 569.562C1190.77 572.735 1193.29 575.233 1196.51 576.079L1200 577L1196.51 577.921C1193.29 578.767 1190.77 581.265 1189.94 584.438L1189 588ZM1184.35 577C1186.33 578.035 1187.95 579.641 1188.99 581.588C1190.03 579.641 1191.66 578.045 1193.63 577C1191.65 575.965 1190.03 574.359 1188.99 572.412C1187.96 574.359 1186.33 575.965 1184.35 577Z" fill="#F27449"/>
<path opacity="0.4" d="M685 590L684.062 586.438C683.231 583.265 680.708 580.767 677.489 579.921L674 579L677.489 578.079C680.708 577.233 683.231 574.735 684.062 571.562L685 568L685.938 571.562C686.769 574.735 689.292 577.233 692.511 578.079L696 579L692.511 579.921C689.292 580.767 686.769 583.265 685.938 586.438L685 590ZM680.351 579C682.332 580.035 683.946 581.641 684.99 583.588C686.034 581.641 687.658 580.045 689.63 579C687.649 577.965 686.034 576.359 684.99 574.412C683.956 576.359 682.332 577.965 680.351 579Z" fill="#F27449"/>
<path opacity="0.3" d="M86 529C82.6984 529 80 526.312 80 523C80 519.688 82.6878 517 86 517C89.3016 517 92 519.688 92 523C91.9894 526.302 89.3016 529 86 529ZM86 519.116C83.8624 519.116 82.1164 520.852 82.1164 523C82.1164 525.138 83.8624 526.884 86 526.884C88.1376 526.884 89.8836 525.138 89.8836 523C89.873 520.862 88.1376 519.116 86 519.116Z" fill="#F27449"/>
<path opacity="0.3" d="M1054 599C1050.7 599 1048 596.312 1048 593C1048 589.688 1050.69 587 1054 587C1057.3 587 1060 589.688 1060 593C1059.99 596.302 1057.3 599 1054 599ZM1054 589.116C1051.86 589.116 1050.12 590.852 1050.12 593C1050.12 595.138 1051.86 596.884 1054 596.884C1056.14 596.884 1057.88 595.138 1057.88 593C1057.87 590.862 1056.14 589.116 1054 589.116Z" fill="#F27449"/>
<path d="M399.122 633.911L373.453 639.329C373.257 639.371 373.047 639.35 372.86 639.267C365.602 636.138 360.275 629.593 358.625 621.776C355.844 608.6 364.115 595.661 377.065 592.927C390.014 590.194 402.809 598.687 405.59 611.862C407.24 619.679 405.013 627.819 399.641 633.622C399.502 633.766 399.318 633.87 399.122 633.911ZM373.35 637.301L398.403 632.012C403.186 626.701 405.147 619.344 403.654 612.271C401.103 600.184 389.36 592.389 377.48 594.897C365.6 597.405 358.01 609.28 360.561 621.367C362.054 628.44 366.82 634.37 373.35 637.301Z" fill="#F27449"/>
<path d="M386.295 594.784C386.173 594.81 386.046 594.808 385.914 594.786C383.118 594.268 380.283 594.305 377.48 594.897C374.678 595.488 372.063 596.601 369.722 598.204C369.45 598.39 369.104 598.427 368.801 598.297C368.498 598.167 368.271 597.898 368.202 597.568L366.255 588.346C366.14 587.802 366.48 587.269 367.015 587.156L383.931 583.586C384.466 583.473 384.992 583.822 385.107 584.366L387.054 593.588C387.122 593.912 387.025 594.256 386.799 594.491C386.661 594.642 386.485 594.744 386.295 594.784ZM377.065 592.927C379.637 592.384 382.237 592.274 384.82 592.585L383.379 585.76L368.392 588.923L369.833 595.749C372.061 594.415 374.492 593.47 377.065 592.927Z" fill="#F27449"/>
<path d="M381.247 586.21L370.531 588.472C369.997 588.585 369.47 588.235 369.356 587.691L367.368 578.276C367.253 577.732 367.594 577.2 368.128 577.087L378.844 574.825C379.379 574.712 379.905 575.062 380.02 575.606L380.474 577.755C380.559 578.161 380.391 578.57 380.051 578.801C379.587 579.114 379.349 579.697 379.467 580.255C379.586 580.819 380.024 581.252 380.589 581.349C380.993 581.422 381.312 581.728 381.398 582.135L382.009 585.027C382.115 585.566 381.775 586.098 381.247 586.21ZM371.085 586.305L379.865 584.451L379.587 583.136C378.552 582.721 377.779 581.805 377.539 580.669C377.298 579.526 377.635 578.375 378.414 577.578L378.293 577.006L369.514 578.859L371.085 586.305Z" fill="#F27449"/>
<path d="M359.6 621.469C359.343 621.524 359.064 621.475 358.831 621.308C358.381 620.986 358.27 620.362 358.584 619.907C358.644 619.822 360.026 617.826 362.285 616.169C365.389 613.888 368.654 613.343 371.718 614.595C377.437 616.935 381.277 614.225 383.977 611.605L384.182 611.403C386.347 609.299 389.628 606.117 394.212 608.336C398.005 610.161 403.98 609.325 404.042 609.319C404.584 609.24 405.089 609.623 405.17 610.174C405.251 610.725 404.878 611.236 404.336 611.314C404.069 611.356 397.701 612.24 393.373 610.161C390.255 608.653 388.163 610.332 385.552 612.869L385.34 613.072C384.09 614.286 382.358 615.795 380.041 616.709C377.176 617.839 374.131 617.755 370.989 616.468C365.109 614.069 360.259 621.007 360.21 621.075C360.055 621.28 359.837 621.419 359.6 621.469Z" fill="#F27449"/>
<path d="M371.649 625.422C371.114 625.535 370.588 625.186 370.473 624.642L370.068 622.72C369.953 622.176 370.293 621.644 370.828 621.531C371.362 621.418 371.889 621.768 372.004 622.312L372.409 624.233C372.524 624.777 372.184 625.309 371.649 625.422Z" fill="#F27449"/>
<path d="M376.582 629.23C376.048 629.343 375.521 628.994 375.406 628.449L375.001 626.528C374.886 625.984 375.226 625.452 375.761 625.339C376.296 625.226 376.822 625.575 376.937 626.119L377.342 628.041C377.457 628.585 377.117 629.117 376.582 629.23Z" fill="#F27449"/>
<path d="M381.357 622.337C380.822 622.45 380.295 622.101 380.181 621.557L379.775 619.635C379.66 619.091 380 618.559 380.535 618.446C381.07 618.333 381.596 618.682 381.711 619.227L382.117 621.148C382.231 621.692 381.891 622.224 381.357 622.337Z" fill="#F27449"/>
<path d="M387.771 631.624C387.237 631.736 386.71 631.387 386.595 630.843L386.19 628.921C386.075 628.377 386.415 627.845 386.95 627.732C387.485 627.619 388.011 627.969 388.126 628.513L388.531 630.434C388.646 630.978 388.306 631.511 387.771 631.624Z" fill="#F27449"/>
<path d="M382.789 627.92C382.255 628.033 381.728 627.683 381.613 627.139L381.208 625.218C381.093 624.674 381.433 624.141 381.968 624.028C382.503 623.916 383.029 624.265 383.144 624.809L383.549 626.731C383.664 627.275 383.324 627.807 382.789 627.92Z" fill="#F27449"/>
<path d="M389.443 619.983C388.908 620.096 388.382 619.746 388.267 619.202L387.862 617.281C387.747 616.737 388.087 616.204 388.622 616.092C389.157 615.979 389.683 616.328 389.798 616.872L390.203 618.794C390.318 619.338 389.978 619.87 389.443 619.983Z" fill="#F27449"/>
<path d="M391.834 625.011C391.299 625.123 390.773 624.774 390.658 624.23L390.253 622.308C390.138 621.764 390.478 621.232 391.013 621.119C391.548 621.006 392.074 621.356 392.189 621.9L392.594 623.821C392.709 624.365 392.369 624.898 391.834 625.011Z" fill="#F27449"/>
<path d="M397.559 617.493C397.024 617.606 396.498 617.256 396.383 616.712L395.979 614.798C395.864 614.254 396.204 613.721 396.739 613.608C397.274 613.496 397.8 613.845 397.915 614.389L398.319 616.304C398.434 616.848 398.093 617.38 397.559 617.493Z" fill="#F27449"/>
<path d="M398.582 625.658C398.048 625.771 397.521 625.422 397.406 624.878L397.001 622.956C396.886 622.412 397.226 621.88 397.761 621.767C398.296 621.654 398.822 622.003 398.937 622.547L399.342 624.469C399.456 625.006 399.117 625.545 398.582 625.658Z" fill="#F27449"/>
<path d="M371.82 631.66C371.285 631.773 370.759 631.423 370.644 630.879L370.239 628.958C370.124 628.413 370.464 627.881 370.999 627.768C371.533 627.655 372.06 628.005 372.175 628.549L372.58 630.47C372.695 631.015 372.355 631.547 371.82 631.66Z" fill="#F27449"/>
<path d="M997.635 571.634C994.438 570.011 991.234 568.108 989.119 566.847C988.152 566.275 987.393 565.816 986.998 565.616C982.393 563.213 981.933 558.123 981.301 551.087C981.14 549.269 980.955 547.204 980.679 545.026C980.281 541.784 977.239 538.406 975.956 537.103C975.403 536.546 975.183 535.806 975.328 535.016C975.821 532.3 980.62 529.267 983.185 528.043L994.279 506.186C994.414 505.92 994.654 505.724 994.946 505.653C999.489 504.495 1004.66 503.426 1008.46 505.359C1010.13 506.204 1011.37 507.558 1012.15 509.39C1012.26 509.632 1012.26 509.903 1012.17 510.15L999.411 544.876C999.93 549.867 1001.45 552.502 1003.37 555.841C1005.2 559.028 1007.48 562.996 1009.56 570.163C1010.09 572.025 1009.88 573.365 1008.9 574.159C1007.23 575.517 1003.75 574.739 997.635 571.634ZM995.95 507.556L984.902 529.322C984.797 529.529 984.619 529.7 984.405 529.795C981.116 531.272 977.643 534.056 977.4 535.416C977.367 535.578 977.406 535.615 977.449 535.661C978.886 537.116 982.287 540.912 982.771 544.8C983.044 547.017 983.238 549.096 983.399 550.929C984.011 557.776 984.386 561.911 987.965 563.776C988.402 564.006 989.152 564.452 990.182 565.064C992.28 566.308 995.444 568.191 998.576 569.781C1005.82 573.46 1007.33 572.719 1007.56 572.532C1007.76 572.372 1007.85 571.809 1007.54 570.703C1005.54 563.778 1003.42 560.095 1001.55 556.849C999.559 553.386 997.838 550.402 997.299 544.815C997.286 544.661 997.306 544.509 997.355 544.362L1010.04 509.811C1009.45 508.624 1008.63 507.773 1007.51 507.205C1004.27 505.563 999.045 506.771 995.95 507.556Z" fill="#F27449"/>
<path d="M971.345 556.391L968.194 554.792C967.7 554.542 967.477 553.956 967.69 553.453L975.4 535.362C975.577 534.947 976.002 534.698 976.459 534.743C976.916 534.787 977.288 535.115 977.393 535.559C977.403 535.605 977.416 535.628 977.449 535.661C978.34 536.561 980.028 538.404 981.271 540.6C981.455 540.921 981.452 541.319 981.264 541.639L972.723 556.007C972.437 556.473 971.838 556.642 971.345 556.391ZM970.006 553.389L971.401 554.097L979.136 541.089C978.33 539.792 977.383 538.643 976.643 537.835L970.006 553.389Z" fill="#F27449"/>
<path d="M987.754 530.827C987.234 530.563 987.024 529.934 987.283 529.422L996.838 510.598C997.098 510.086 997.729 509.885 998.249 510.149C998.768 510.412 998.979 511.041 998.719 511.553L989.168 530.371C988.898 530.886 988.267 531.087 987.754 530.827Z" fill="#F27449"/>
<path d="M1006.78 521.171L1001.58 518.53C1001.06 518.267 1000.85 517.638 1001.11 517.126C1001.37 516.614 1002 516.413 1002.52 516.677L1007.72 519.318C1008.24 519.582 1008.46 520.21 1008.2 520.722C1007.94 521.234 1007.3 521.435 1006.78 521.171Z" fill="#F27449"/>
<path d="M1005.34 525.424L1000.13 522.783C999.614 522.52 999.403 521.891 999.663 521.379C999.923 520.867 1000.55 520.666 1001.07 520.93L1006.28 523.571C1006.8 523.835 1007.01 524.463 1006.75 524.975C1006.49 525.487 1005.86 525.688 1005.34 525.424Z" fill="#F27449"/>
<path d="M1003.82 529.634L998.617 526.993C998.098 526.729 997.887 526.101 998.147 525.589C998.407 525.077 999.038 524.876 999.558 525.14L1004.76 527.781C1005.28 528.045 1005.49 528.673 1005.23 529.185C1004.97 529.694 1004.33 529.895 1003.82 529.634Z" fill="#F27449"/>
<path d="M1002.16 533.976L996.96 531.335C996.44 531.071 996.23 530.443 996.49 529.931C996.75 529.419 997.381 529.218 997.901 529.481L1003.1 532.122C1003.62 532.386 1003.83 533.015 1003.57 533.527C1003.31 534.038 1002.68 534.24 1002.16 533.976Z" fill="#F27449"/>
<path d="M997.635 571.634C994.438 570.011 991.234 568.108 989.12 566.847C988.159 566.278 987.396 565.826 987.005 565.619C986.866 565.549 986.732 565.472 986.607 565.393C986.215 565.153 986.024 564.698 986.13 564.262C986.462 562.874 986.949 561.54 987.58 560.296C989.988 555.553 994.326 552.172 999.792 550.774C1000.3 550.647 1000.83 550.907 1001.04 551.389C1001.69 552.909 1002.46 554.265 1003.37 555.841C1005.2 559.028 1007.49 563 1009.55 570.17C1010.09 572.031 1009.87 573.372 1008.9 574.165C1007.23 575.517 1003.75 574.739 997.635 571.634ZM988.379 564.002C988.823 564.252 989.425 564.615 990.188 565.067C992.287 566.312 995.451 568.195 998.582 569.784C1005.83 573.463 1007.34 572.722 1007.57 572.535C1007.77 572.375 1007.86 571.812 1007.55 570.706C1005.54 563.781 1003.43 560.092 1001.55 556.842C1000.82 555.556 1000.1 554.331 999.486 553.023C995.01 554.394 991.474 557.285 989.465 561.245C989.014 562.116 988.652 563.041 988.379 564.002Z" fill="#F27449"/>
<path d="M189.581 514.637L134.013 537.232C133.745 537.341 133.447 537.335 133.19 537.207C132.935 537.086 132.743 536.857 132.669 536.581L126.227 513.187L123.326 502.651C123.19 502.168 123.447 501.659 123.923 501.466L171.842 481.981C172.318 481.787 172.851 481.975 173.097 482.414L190.054 513.165C190.091 513.217 190.114 513.275 190.138 513.333C190.346 513.847 190.096 514.428 189.581 514.637ZM134.309 534.97L187.784 513.227L171.761 484.155L125.498 502.966L128.165 512.646L134.309 534.97Z" fill="#F27449"/>
<path d="M160.161 488.872L137.098 498.249C136.582 498.459 135.998 498.217 135.792 497.71L133.707 492.584C132.352 489.25 134.001 485.42 137.385 484.044L150.042 478.898C153.426 477.522 157.28 479.114 158.636 482.448L160.72 487.574C160.926 488.081 160.676 488.662 160.161 488.872ZM137.276 496.036L158.481 487.414L156.771 483.206C155.828 480.887 153.143 479.778 150.789 480.735L138.132 485.881C135.778 486.839 134.629 489.507 135.572 491.826L137.283 496.033L137.276 496.036Z" fill="#F27449"/>
<path d="M138.749 512.759L136.2 513.795C135.685 514.005 135.1 513.763 134.894 513.256L133.259 509.235C133.052 508.727 133.303 508.146 133.818 507.937L136.367 506.9C136.882 506.691 137.467 506.932 137.673 507.44L139.308 511.461C139.515 511.969 139.264 512.549 138.749 512.759ZM136.388 511.586L137.072 511.307L136.184 509.123L135.5 509.401L136.388 511.586Z" fill="#F27449"/>
<path d="M171.359 499.499L168.81 500.536C168.295 500.746 167.71 500.504 167.504 499.997L165.869 495.975C165.662 495.468 165.913 494.887 166.428 494.678L168.977 493.641C169.492 493.432 170.077 493.673 170.283 494.18L171.918 498.202C172.118 498.712 171.868 499.293 171.359 499.499ZM168.991 498.329L169.676 498.05L168.788 495.866L168.103 496.145L168.991 498.329Z" fill="#F27449"/>
<path d="M172.547 516.249L147.338 526.499C146.823 526.708 146.239 526.467 146.032 525.959C145.826 525.452 146.076 524.871 146.591 524.662L171.8 514.412C172.315 514.202 172.899 514.444 173.106 514.951C173.306 515.461 173.055 516.042 172.547 516.249Z" fill="#F27449"/>
<path d="M178.327 494.323L170.541 497.489C170.026 497.698 169.442 497.457 169.235 496.949C169.029 496.442 169.279 495.861 169.794 495.652L177.587 492.483C178.102 492.274 178.686 492.515 178.892 493.023C179.092 493.533 178.842 494.114 178.327 494.323Z" fill="#F27449"/>
<path d="M167.986 498.528L137.932 510.748C137.417 510.958 136.833 510.716 136.626 510.209C136.42 509.701 136.67 509.12 137.185 508.911L167.239 496.691C167.754 496.481 168.338 496.723 168.545 497.23C168.751 497.738 168.501 498.319 167.986 498.528Z" fill="#F27449"/>
<path d="M135.383 511.785L127.845 514.85C127.33 515.059 126.745 514.818 126.539 514.31C126.333 513.803 126.583 513.222 127.098 513.012L134.636 509.948C135.151 509.738 135.735 509.98 135.942 510.487C136.148 510.994 135.898 511.575 135.383 511.785Z" fill="#F27449"/>
<path d="M1322.3 614.03L1313.64 609.187C1315.65 607.971 1318.03 605.72 1316.98 603.279C1316.29 601.666 1314.4 599.834 1311.86 599.599C1310.31 599.46 1308.11 599.886 1305.8 602.355C1306.7 599.099 1305.9 596.989 1304.96 595.744C1303.43 593.707 1300.87 593.054 1299.15 593.316C1296.24 593.751 1295.88 597.514 1295.88 599.268L1287.27 594.458C1286.82 594.206 1286.24 594.369 1285.99 594.824L1281.53 602.802C1281.28 603.256 1281.44 603.83 1281.89 604.083L1284.57 605.581L1268.96 633.53C1268.71 633.984 1268.87 634.558 1269.32 634.811L1297.34 650.466C1297.8 650.718 1298.37 650.555 1298.62 650.1L1306.3 636.366L1309.64 630.387L1314.24 622.152L1316.92 623.65C1317.37 623.903 1317.95 623.739 1318.2 623.285L1322.66 615.307C1322.92 614.857 1322.76 614.283 1322.3 614.03ZM1311.69 601.481C1313.38 601.639 1314.76 602.882 1315.25 604.033C1315.9 605.542 1313.06 607.413 1312.01 607.942C1311.9 607.995 1311.83 608.066 1311.75 608.146L1306.09 604.983C1308.31 601.877 1310.35 601.351 1311.69 601.481ZM1299.42 595.178C1300.65 594.991 1302.44 595.518 1303.46 596.873C1304.27 597.954 1304.88 599.963 1303.41 603.476L1297.75 600.313C1297.78 600.204 1297.79 600.099 1297.79 599.985C1297.7 598.821 1297.8 595.424 1299.42 595.178ZM1278.72 637.902L1271.06 633.622L1277.81 621.535L1285.48 625.815L1278.72 637.902ZM1278.76 619.903L1281.18 615.571L1288.8 619.826L1286.38 624.159L1278.76 619.903ZM1289.74 618.189L1282.07 613.909L1286.21 606.497L1293.88 610.777L1289.74 618.189ZM1294.8 609.13L1283.63 602.894L1287.17 596.563L1298.33 602.799L1294.8 609.13ZM1287.53 642.619L1280.45 638.664L1299.89 603.87L1306.97 607.825L1287.53 642.619ZM1297.45 648.365L1289.09 643.694L1295.84 631.607L1304.21 636.278L1297.45 648.365ZM1305.13 634.631L1296.97 630.075L1299.39 625.743L1307.55 630.299L1305.13 634.631ZM1308.47 628.652L1300.1 623.981L1304.24 616.57L1312.61 621.241L1308.47 628.652ZM1317.03 621.55L1305.16 614.918L1308.69 608.587L1320.56 615.214L1317.02 621.545L1317.03 621.55Z" fill="#F27449"/>
<rect opacity="0.2" x="563" y="605" width="46" height="4" rx="2" fill="#F27449"/>
<g opacity="0.2">
<circle cx="1096" cy="517" r="2" fill="#F27449"/>
<circle cx="1104" cy="517" r="2" fill="#F27449"/>
<circle cx="1112" cy="517" r="2" fill="#F27449"/>
<circle cx="1120" cy="517" r="2" fill="#F27449"/>
<circle cx="1128" cy="517" r="2" fill="#F27449"/>
</g>
</g>
<defs>
<clipPath id="clip0_1106_80011">
<rect width="1440" height="628" fill="white"/>
</clipPath>
</defs>
</svg>
