<svg width="156" height="127" viewBox="0 0 156 127" fill="none" xmlns="http://www.w3.org/2000/svg">
<ellipse opacity="0.2" cx="2.776" cy="2.76357" rx="2.776" ry="2.76357" transform="matrix(0.461116 0.88734 -0.884334 0.466854 94.9258 5.66211)" fill="#F27449"/>
<ellipse cx="4.41597" cy="4.4473" rx="4.41597" ry="4.4473" transform="matrix(0.973584 0.228331 -0.224942 0.974372 19.1523 111.227)" fill="#F27449"/>
<ellipse cx="5.79596" cy="5.55913" rx="5.79596" ry="5.55913" transform="matrix(0.973584 0.228331 -0.224942 0.974372 144.215 68.041)" fill="#F27449"/>
<ellipse cx="6.07195" cy="6.11504" rx="6.07195" ry="6.11504" transform="matrix(0.973584 0.228331 -0.224942 0.974372 26.8477 0)" fill="#F27449"/>
<ellipse opacity="0.3" cx="3.20628" cy="3.03992" rx="3.20628" ry="3.03992" transform="matrix(0.461116 0.88734 -0.884334 0.466854 111.188 118.471)" fill="#F27449"/>
<ellipse opacity="0.4" cx="2.2208" cy="2.21085" rx="2.2208" ry="2.21085" transform="matrix(0.461116 0.88734 -0.884334 0.466854 4.41016 79.6309)" fill="#F27449"/>
<ellipse cx="70.6366" cy="66.2934" rx="48.1678" ry="48.5492" fill="#F27449"/>
<path fill-rule="evenodd" clip-rule="evenodd" d="M63.406 77.5456L52.2172 64.7866C51.7023 64.2028 50.9017 64.027 50.2163 64.283C50.9014 64.0278 51.7013 64.2037 52.2158 64.7871L63.405 77.5466L63.406 77.5456ZM88.2655 52.7247C88.9145 52.4816 89.6732 52.6229 90.1948 53.1487C90.9083 53.8678 90.9083 55.0337 90.1948 55.7527L64.6185 81.5315C64.4249 81.7267 64.1993 81.8685 63.959 81.9577C64.1998 81.8686 64.426 81.7265 64.62 81.531L90.1963 55.7522C90.9097 55.0331 90.9097 53.8672 90.1963 53.1482C89.6742 52.622 88.9149 52.4808 88.2655 52.7247ZM60.1124 83.1017L47.6401 68.8873L47.6378 68.8847C46.0636 67.0969 46.2241 64.3612 47.997 62.7729C49.7707 61.1837 52.4867 61.3448 54.0634 63.1325L54.068 63.1378L63.5174 73.9133L85.866 51.3877C87.5441 49.6963 90.2648 49.6963 91.9429 51.3877C93.621 53.0791 93.621 55.8213 91.9429 57.5127L66.3666 83.2915C64.6184 85.0536 61.7591 84.9689 60.1165 83.1064L60.1124 83.1017Z" fill="white"/>
</svg>
